<svg viewBox="0 0 52.0002 52" xmlns="http://www.w3.org/2000/svg" xmlns:xlink="http://www.w3.org/1999/xlink" width="52.000183" height="52.000000" fill="none" customFrame="#000000">
	<rect id="icon_space" width="52.000198" height="52.000000" x="0.000000" y="0.000000" />
	<g id="Сочетание 8">
		<path id="Форма 9" d="M50.2667 41.5999L10.4 41.5999L10.4 1.73336C10.3989 0.776443 9.62357 0.00111718 8.66665 0L1.73337 0C0.776447 0.00111718 0.00111719 0.776443 0 1.73336L0 50.2666C0.00111719 51.2234 0.776447 51.9989 1.73337 52L50.2668 52C51.2236 51.9989 51.9991 51.2235 52.0002 50.2666L52.0002 43.3333C51.999 42.3763 51.2236 41.601 50.2667 41.5999L50.2667 41.5999ZM8.66665 1.73336L8.66665 4.33336L5.20001 4.33336C4.72134 4.33336 4.33337 4.72132 4.33337 5.19999C4.33337 5.67865 4.72134 6.06662 5.20001 6.06662L8.66665 6.06662L8.66665 7.79998L6.93338 7.79998C6.45471 7.79998 6.06674 8.18795 6.06674 8.66661C6.06674 9.14528 6.45471 9.53324 6.93338 9.53324L8.66675 9.53324L8.66675 11.2666L6.93338 11.2666C6.45471 11.2666 6.06674 11.6546 6.06674 12.1332C6.06674 12.6119 6.45471 13 6.93338 13L8.66675 13L8.66675 14.7333L6.93338 14.7333C6.81845 14.7333 6.7079 14.7553 6.60173 14.7993C6.49555 14.8433 6.40184 14.9059 6.32057 14.9872C6.23931 15.0684 6.17669 15.1621 6.13271 15.2683C6.08873 15.3745 6.06674 15.485 6.06674 15.6C6.06674 15.7149 6.08873 15.8254 6.13271 15.9316C6.17669 16.0378 6.23931 16.1315 6.32057 16.2128C6.40184 16.294 6.49555 16.3566 6.60173 16.4006C6.7079 16.4446 6.81845 16.4666 6.93338 16.4666L8.66675 16.4666L8.66675 18.2L6.93338 18.2C6.45471 18.2 6.06674 18.5879 6.06674 19.0666C6.06674 19.5452 6.45471 19.9332 6.93338 19.9332L8.66675 19.9332L8.66675 21.6666L5.20001 21.6666C4.72134 21.6666 4.33337 22.0546 4.33337 22.5332C4.33337 23.0119 4.72134 23.3998 5.20001 23.3998L8.66665 23.3998L8.66665 25.1332L6.93338 25.1332C6.45471 25.1332 6.06674 25.5212 6.06674 25.9998C6.06674 26.4785 6.45471 26.8665 6.93338 26.8665L8.66675 26.8665L8.66675 28.5999L6.93338 28.5999C6.45471 28.5999 6.06674 28.9879 6.06674 29.4666C6.06674 29.9452 6.45471 30.3332 6.93338 30.3332L8.66675 30.3332L8.66675 32.0666L6.93338 32.0666C6.45471 32.0666 6.06674 32.4545 6.06674 32.9332C6.06674 33.4118 6.45471 33.7998 6.93338 33.7998L8.66675 33.7998L8.66675 35.5332L6.93338 35.5332C6.45471 35.5332 6.06674 35.9211 6.06674 36.3998C6.06674 36.8785 6.45471 37.2664 6.93338 37.2664L8.66675 37.2664L8.66675 38.9999L5.20001 38.9999C5.08508 38.9999 4.97454 39.0219 4.86836 39.0659C4.76219 39.1099 4.66847 39.1725 4.5872 39.2537C4.50594 39.335 4.44332 39.4287 4.39934 39.5349C4.35536 39.6411 4.33337 39.7516 4.33337 39.8665C4.33337 39.9815 4.35536 40.092 4.39934 40.1982C4.44332 40.3044 4.50594 40.3981 4.5872 40.4793C4.66847 40.5606 4.76219 40.6232 4.86836 40.6672C4.97454 40.7112 5.08508 40.7332 5.20001 40.7332L8.66665 40.7332L8.66665 41.5998C8.66685 41.7547 8.68919 41.904 8.72748 42.0469L1.73337 49.041L1.73337 1.73336L8.66665 1.73336ZM50.2667 50.2665L2.95883 50.2665L9.95294 43.2724C10.0958 43.3106 10.2451 43.3331 10.4 43.3333L11.2667 43.3333L11.2667 46.7999C11.2666 46.9148 11.2886 47.0254 11.3325 47.1316C11.3765 47.2379 11.4391 47.3316 11.5204 47.4129C11.6017 47.4942 11.6954 47.5568 11.8016 47.6008C11.9079 47.6447 12.0184 47.6667 12.1334 47.6666C12.2483 47.6667 12.3589 47.6447 12.4651 47.6008C12.5714 47.5568 12.6651 47.4942 12.7464 47.4129C12.8277 47.3316 12.8903 47.2379 12.9343 47.1316C12.9782 47.0254 13.0002 46.9148 13.0001 46.7999L13.0001 43.3332L14.7335 43.3331L14.7335 45.0665C14.7334 45.1815 14.7554 45.2921 14.7994 45.3983C14.8433 45.5045 14.9059 45.5982 14.9872 45.6795C15.0685 45.7608 15.1623 45.8234 15.2685 45.8674C15.3747 45.9114 15.4853 45.9333 15.6002 45.9333C15.7152 45.9333 15.8258 45.9114 15.932 45.8674C16.0382 45.8234 16.1319 45.7608 16.2132 45.6795C16.2945 45.5982 16.3571 45.5045 16.4011 45.3983C16.4451 45.2921 16.467 45.1815 16.467 45.0665L16.467 43.333L18.2003 43.3329L18.2003 45.0664C18.2003 45.1814 18.2222 45.292 18.2662 45.3982C18.3102 45.5044 18.3728 45.5981 18.4541 45.6794C18.5354 45.7607 18.6291 45.8233 18.7353 45.8673C18.8415 45.9113 18.9521 45.9332 19.0671 45.9332C19.182 45.9332 19.2926 45.9112 19.3988 45.8673C19.505 45.8233 19.5988 45.7607 19.6801 45.6794C19.7613 45.5981 19.824 45.5044 19.8679 45.3982C19.9119 45.292 19.9339 45.1814 19.9338 45.0664L19.9338 43.3328L21.6672 43.3326L21.6672 45.0663C21.6671 45.1813 21.6891 45.2919 21.733 45.3981C21.777 45.5043 21.8396 45.598 21.9209 45.6793C22.0022 45.7606 22.0959 45.8232 22.2022 45.8672C22.3084 45.9112 22.419 45.9331 22.5339 45.9331C22.6489 45.9331 22.7594 45.9112 22.8657 45.8672C22.9719 45.8232 23.0656 45.7606 23.1469 45.6793C23.2282 45.598 23.2908 45.5043 23.3348 45.3981C23.3787 45.2919 23.4007 45.1813 23.4006 45.0663L23.4006 43.3326L25.134 43.3326L25.134 45.0663C25.134 45.1813 25.1559 45.2919 25.1999 45.3981C25.2438 45.5043 25.3065 45.598 25.3878 45.6793C25.469 45.7606 25.5628 45.8232 25.669 45.8672C25.7752 45.9112 25.8858 45.9331 26.0008 45.9331C26.1157 45.9331 26.2263 45.9112 26.3325 45.8672C26.4387 45.8232 26.5325 45.7606 26.6137 45.6793C26.695 45.598 26.7577 45.5043 26.8016 45.3981C26.8456 45.2919 26.8675 45.1813 26.8675 45.0663L26.8675 43.3325L28.6009 43.3324L28.6009 46.7999C28.6008 46.9148 28.6228 47.0254 28.6667 47.1316C28.7107 47.2379 28.7733 47.3316 28.8546 47.4129C28.9359 47.4942 29.0296 47.5568 29.1358 47.6008C29.2421 47.6447 29.3526 47.6667 29.4676 47.6666C29.5825 47.6667 29.6931 47.6447 29.7993 47.6007C29.9056 47.5568 29.9993 47.4942 30.0806 47.4129C30.1619 47.3316 30.2245 47.2379 30.2685 47.1316C30.3124 47.0254 30.3344 46.9148 30.3343 46.7999L30.3343 43.3326L32.0677 43.3325L32.0677 45.0664C32.0676 45.1814 32.0896 45.292 32.1336 45.3982C32.1775 45.5044 32.2402 45.5981 32.3214 45.6794C32.4027 45.7607 32.4965 45.8233 32.6027 45.8673C32.7089 45.9113 32.8195 45.9332 32.9344 45.9332C33.0494 45.9332 33.16 45.9113 33.2662 45.8673C33.3724 45.8233 33.4661 45.7607 33.5474 45.6794C33.6287 45.5981 33.6913 45.5044 33.7353 45.3982C33.7793 45.292 33.8012 45.1814 33.8012 45.0664L33.8012 43.3323L35.5345 43.3322L35.5345 45.0664C35.5345 45.1814 35.5564 45.292 35.6004 45.3982C35.6444 45.5044 35.707 45.5981 35.7883 45.6794C35.8696 45.7607 35.9633 45.8233 36.0695 45.8673C36.1757 45.9113 36.2863 45.9332 36.4013 45.9332C36.5162 45.9332 36.6268 45.9113 36.733 45.8673C36.8392 45.8233 36.933 45.7607 37.0143 45.6794C37.0955 45.5981 37.1582 45.5044 37.2021 45.3982C37.2461 45.292 37.2681 45.1814 37.268 45.0664L37.268 43.3322L39 43.3323L39 45.0666C39 45.1816 39.022 45.2922 39.0659 45.3984C39.1099 45.5046 39.1725 45.5983 39.2538 45.6796C39.3351 45.7609 39.4288 45.8235 39.535 45.8675C39.6413 45.9115 39.7518 45.9334 39.8668 45.9334C39.9817 45.9334 40.0923 45.9115 40.1985 45.8675C40.3048 45.8235 40.3985 45.7609 40.4798 45.6796C40.5611 45.5983 40.6237 45.5046 40.6677 45.3984C40.7116 45.2922 40.7336 45.1816 40.7335 45.0666L40.7335 43.3323L42.4669 43.3322L42.4669 45.0666C42.4668 45.1816 42.4888 45.2922 42.5328 45.3984C42.5767 45.5046 42.6393 45.5983 42.7206 45.6796C42.8019 45.7609 42.8957 45.8235 43.0019 45.8675C43.1081 45.9115 43.2187 45.9334 43.3336 45.9334C43.4486 45.9334 43.5592 45.9115 43.6654 45.8675C43.7716 45.8235 43.8653 45.7609 43.9466 45.6796C44.0279 45.5983 44.0905 45.5046 44.1345 45.3984C44.1785 45.2922 44.2004 45.1816 44.2004 45.0666L44.2004 43.3322L45.9337 43.3321L45.9337 46.7999C45.9337 46.9148 45.9556 47.0254 45.9996 47.1316C46.0436 47.2379 46.1062 47.3316 46.1875 47.4129C46.2688 47.4942 46.3625 47.5568 46.4687 47.6008C46.5749 47.6447 46.6855 47.6667 46.8005 47.6666C46.9154 47.6667 47.026 47.6447 47.1322 47.6008C47.2384 47.5568 47.3322 47.4942 47.4135 47.4129C47.4947 47.3316 47.5574 47.2378 47.6013 47.1316C47.6453 47.0254 47.6673 46.9148 47.6672 46.7999L47.6672 43.332L50.2672 43.3319L50.2672 50.2665L50.2667 50.2665Z" fill="rgb(192,108,94)" fill-rule="nonzero" />
		<path id="Форма 10" d="M51.5371 8.76659L35.0704 0.0998743C34.944 0.0334542 34.8094 0.000244135 34.6667 0.000244135C34.5239 0.000244135 34.3893 0.0334542 34.263 0.0998743L17.7963 8.76659C17.654 8.84157 17.5413 8.94791 17.4582 9.0856C17.3751 9.22329 17.3335 9.37255 17.3334 9.53338L17.3334 26.8667C17.3335 27.0275 17.3751 27.1768 17.4582 27.3145C17.5413 27.4522 17.654 27.5585 17.7963 27.6335L34.2562 36.2966L34.2616 36.2994L34.263 36.3001L34.2664 36.3017C34.2936 36.316 34.3217 36.3283 34.3502 36.3395C34.3588 36.343 34.3677 36.3458 34.3764 36.3489C34.4081 36.3602 34.4404 36.3697 34.4733 36.3773C34.4958 36.3825 34.5187 36.3865 34.5416 36.3899C34.551 36.3913 34.5603 36.393 34.5698 36.3941C34.6019 36.3976 34.6342 36.4 34.6667 36.4C34.6993 36.4 34.7316 36.3976 34.7636 36.3941C34.773 36.393 34.7823 36.3912 34.7917 36.3899C34.8146 36.3865 34.8375 36.3825 34.8599 36.3773C34.8702 36.375 34.8803 36.3723 34.8904 36.3697C34.9129 36.3637 34.935 36.3567 34.9568 36.349C34.9656 36.3458 34.9744 36.343 34.983 36.3396C35.0116 36.3284 35.0396 36.316 35.0668 36.3018L35.0703 36.3002L35.0716 36.2995L35.077 36.2967L51.5369 27.6336C51.6792 27.5586 51.7919 27.4523 51.875 27.3146C51.9582 27.1769 51.9998 27.0276 51.9999 26.8668L51.9999 9.53338C51.9999 9.37255 51.9583 9.22328 51.8752 9.08557C51.7921 8.94787 51.6794 8.84154 51.5371 8.76659L51.5371 8.76659ZM34.6667 1.84593L49.7969 9.80912L34.6675 18.5767L19.5366 9.80912L34.6667 1.84593L34.6667 1.84593ZM19.0666 11.5397L33.8 20.0771L33.8 34.0979L19.0666 26.3437L19.0666 11.5397L19.0666 11.5397ZM35.5334 34.0979L35.5334 20.0768L35.5342 20.0763L50.2667 11.5396L50.2667 26.3436L35.5334 34.0979Z" fill="rgb(192,108,94)" fill-rule="nonzero" />
	</g>
</svg>
