<svg viewBox="0 0 24 24" xmlns="http://www.w3.org/2000/svg" xmlns:xlink="http://www.w3.org/1999/xlink" width="24.000000" height="24.000000" fill="none">
	<rect id="icon phone" width="24.000000" height="23.999979" x="0.000000" y="0.000000" />
	<g id="Сочетание 1">
		<path id="Форма 1" d="M16.5437 21.984L7.45638 21.984C7.37497 21.9839 7.29434 21.9759 7.21449 21.9599C7.13465 21.944 7.05713 21.9204 6.98192 21.8892C6.90672 21.858 6.83527 21.8198 6.76758 21.7746C6.6999 21.7293 6.63727 21.6779 6.5797 21.6203C6.52213 21.5628 6.47071 21.5001 6.42546 21.4325C6.38021 21.3648 6.34199 21.2933 6.3108 21.2181C6.2796 21.1429 6.25604 21.0654 6.2401 20.9855C6.22415 20.9057 6.21614 20.8251 6.21606 20.7437L6.21606 3.25631C6.21614 3.17489 6.22415 3.09426 6.2401 3.01442C6.25604 2.93458 6.2796 2.85705 6.3108 2.78185C6.34199 2.70664 6.38021 2.6352 6.42546 2.56751C6.47071 2.49982 6.52213 2.43719 6.5797 2.37962C6.63727 2.32205 6.6999 2.27064 6.76758 2.22539C6.83527 2.18014 6.90671 2.14192 6.98192 2.11073C7.05713 2.07953 7.13465 2.05596 7.21449 2.04002C7.29434 2.02408 7.37497 2.01607 7.45638 2.01599L16.5437 2.01599C16.6252 2.01607 16.7058 2.02408 16.7856 2.04002C16.8655 2.05596 16.943 2.07953 17.0182 2.11073C17.0934 2.14192 17.1649 2.18014 17.2325 2.22539C17.3002 2.27064 17.3629 2.32205 17.4204 2.37962C17.478 2.43719 17.5294 2.49982 17.5747 2.56751C17.6199 2.6352 17.6581 2.70664 17.6893 2.78185C17.7205 2.85705 17.7441 2.93458 17.76 3.01442C17.776 3.09426 17.784 3.17489 17.7841 3.25631L17.7841 20.7437C17.784 20.8251 17.776 20.9057 17.76 20.9855C17.7441 21.0654 17.7205 21.1429 17.6893 21.2181C17.6581 21.2933 17.6199 21.3648 17.5747 21.4325C17.5294 21.5001 17.478 21.5628 17.4204 21.6203C17.3629 21.6779 17.3002 21.7293 17.2325 21.7746C17.1649 21.8198 17.0934 21.858 17.0182 21.8892C16.943 21.9204 16.8655 21.944 16.7856 21.9599C16.7058 21.9759 16.6252 21.9839 16.5437 21.984ZM7.45638 2.78399C7.42538 2.78402 7.39468 2.78707 7.36427 2.79315C7.33387 2.79922 7.30435 2.80819 7.27571 2.82007C7.24707 2.83195 7.21987 2.84651 7.19409 2.86374C7.16832 2.88097 7.14447 2.90055 7.12254 2.92247C7.10062 2.94439 7.08104 2.96824 7.06381 2.99402C7.04658 3.01979 7.03203 3.047 7.02015 3.07564C7.00827 3.10427 6.99929 3.13379 6.99322 3.1642C6.98715 3.1946 6.9841 3.22531 6.98406 3.25631L6.98406 20.7437C6.9841 20.7747 6.98715 20.8054 6.99322 20.8358C6.99929 20.8662 7.00827 20.8957 7.02015 20.9243C7.03202 20.953 7.04658 20.9802 7.06381 21.0059C7.08104 21.0317 7.10062 21.0556 7.12254 21.0775C7.14447 21.0994 7.16832 21.119 7.19409 21.1362C7.21987 21.1535 7.24707 21.168 7.27571 21.1799C7.30435 21.1918 7.33387 21.2007 7.36427 21.2068C7.39468 21.2129 7.42538 21.2159 7.45638 21.216L16.5437 21.216C16.5747 21.2159 16.6055 21.2129 16.6359 21.2068C16.6663 21.2007 16.6958 21.1918 16.7244 21.1799C16.7531 21.168 16.7803 21.1535 16.806 21.1362C16.8318 21.119 16.8557 21.0994 16.8776 21.0775C16.8995 21.0556 16.9191 21.0317 16.9363 21.0059C16.9535 20.9802 16.9681 20.953 16.98 20.9243C16.9919 20.8957 17.0008 20.8662 17.0069 20.8358C17.013 20.8054 17.016 20.7747 17.0161 20.7437L17.0161 3.25631C17.016 3.22531 17.013 3.1946 17.0069 3.1642C17.0008 3.13379 16.9919 3.10427 16.98 3.07564C16.9681 3.047 16.9536 3.01979 16.9363 2.99402C16.9191 2.96824 16.8995 2.94439 16.8776 2.92247C16.8557 2.90055 16.8318 2.88097 16.806 2.86374C16.7803 2.84651 16.7531 2.83195 16.7244 2.82007C16.6958 2.80819 16.6663 2.79922 16.6359 2.79315C16.6055 2.78707 16.5748 2.78402 16.5437 2.78399L7.45638 2.78399Z" fill="rgb(192,108,94)" fill-rule="nonzero" />
		<path id="Форма 1" d="M7.45638 21.984C7.37497 21.9839 7.29434 21.9759 7.21449 21.9599C7.13465 21.944 7.05713 21.9204 6.98192 21.8892C6.90672 21.858 6.83527 21.8198 6.76758 21.7746C6.6999 21.7293 6.63727 21.6779 6.5797 21.6203C6.52213 21.5628 6.47071 21.5001 6.42546 21.4325C6.38021 21.3648 6.34199 21.2933 6.3108 21.2181C6.2796 21.1429 6.25604 21.0654 6.2401 20.9855C6.22415 20.9057 6.21614 20.8251 6.21606 20.7437L6.21606 3.25631C6.21614 3.17489 6.22415 3.09426 6.2401 3.01442C6.25604 2.93458 6.2796 2.85705 6.3108 2.78185C6.34199 2.70664 6.38021 2.6352 6.42546 2.56751C6.47071 2.49982 6.52213 2.43719 6.5797 2.37962C6.63727 2.32205 6.6999 2.27064 6.76758 2.22539C6.83527 2.18014 6.90671 2.14192 6.98192 2.11073C7.05713 2.07953 7.13465 2.05596 7.21449 2.04002C7.29434 2.02408 7.37497 2.01607 7.45638 2.01599L16.5437 2.01599C16.6252 2.01607 16.7058 2.02408 16.7856 2.04002C16.8655 2.05596 16.943 2.07953 17.0182 2.11073C17.0934 2.14192 17.1649 2.18014 17.2325 2.22539C17.3002 2.27064 17.3629 2.32205 17.4204 2.37962C17.478 2.43719 17.5294 2.49982 17.5747 2.56751C17.6199 2.6352 17.6581 2.70664 17.6893 2.78185C17.7205 2.85705 17.7441 2.93458 17.76 3.01442C17.776 3.09426 17.784 3.17489 17.7841 3.25631L17.7841 20.7437C17.784 20.8251 17.776 20.9057 17.76 20.9855C17.7441 21.0654 17.7205 21.1429 17.6893 21.2181C17.6581 21.2933 17.6199 21.3648 17.5747 21.4325C17.5294 21.5001 17.478 21.5628 17.4204 21.6203C17.3629 21.6779 17.3002 21.7293 17.2325 21.7746C17.1649 21.8198 17.0934 21.858 17.0182 21.8892C16.943 21.9204 16.8655 21.944 16.7856 21.9599C16.7058 21.9759 16.6252 21.9839 16.5437 21.984L7.45638 21.984ZM7.36427 2.79315C7.33387 2.79922 7.30435 2.80819 7.27571 2.82007C7.24707 2.83195 7.21987 2.84651 7.19409 2.86374C7.16832 2.88097 7.14447 2.90055 7.12254 2.92247C7.10062 2.94439 7.08104 2.96824 7.06381 2.99402C7.04658 3.01979 7.03203 3.047 7.02015 3.07564C7.00827 3.10427 6.99929 3.13379 6.99322 3.1642C6.98715 3.1946 6.9841 3.22531 6.98406 3.25631L6.98406 20.7437C6.9841 20.7747 6.98715 20.8054 6.99322 20.8358C6.99929 20.8662 7.00827 20.8957 7.02015 20.9243C7.03202 20.953 7.04658 20.9802 7.06381 21.0059C7.08104 21.0317 7.10062 21.0556 7.12254 21.0775C7.14447 21.0994 7.16832 21.119 7.19409 21.1362C7.21987 21.1535 7.24707 21.168 7.27571 21.1799C7.30435 21.1918 7.33387 21.2007 7.36427 21.2068C7.39468 21.2129 7.42538 21.2159 7.45638 21.216L16.5437 21.216C16.5747 21.2159 16.6055 21.2129 16.6359 21.2068C16.6663 21.2007 16.6958 21.1918 16.7244 21.1799C16.7531 21.168 16.7803 21.1535 16.806 21.1362C16.8318 21.119 16.8557 21.0994 16.8776 21.0775C16.8995 21.0556 16.9191 21.0317 16.9363 21.0059C16.9535 20.9802 16.9681 20.953 16.98 20.9243C16.9919 20.8957 17.0008 20.8662 17.0069 20.8358C17.013 20.8054 17.016 20.7747 17.0161 20.7437L17.0161 3.25631C17.016 3.22531 17.013 3.1946 17.0069 3.1642C17.0008 3.13379 16.9919 3.10427 16.98 3.07564C16.9681 3.047 16.9536 3.01979 16.9363 2.99402C16.9191 2.96824 16.8995 2.94439 16.8776 2.92247C16.8557 2.90055 16.8318 2.88097 16.806 2.86374C16.7803 2.84651 16.7531 2.83195 16.7244 2.82007C16.6958 2.80819 16.6663 2.79922 16.6359 2.79315C16.6055 2.78707 16.5748 2.78402 16.5437 2.78399L7.45638 2.78399C7.42538 2.78402 7.39468 2.78707 7.36427 2.79315Z" fill-rule="nonzero" stroke="rgb(192,108,94)" stroke-width="1" />
		<path id="Форма 2" d="M17.4001 19.104L6.60006 19.104C6.54914 19.104 6.50016 19.0942 6.45311 19.0747C6.40607 19.0553 6.36454 19.0275 6.32854 18.9915C6.29253 18.9555 6.26478 18.914 6.24529 18.8669C6.22581 18.8199 6.21606 18.7709 6.21606 18.72C6.21606 18.6691 6.22581 18.6201 6.24529 18.573C6.26478 18.526 6.29253 18.4845 6.32854 18.4485C6.36454 18.4124 6.40607 18.3847 6.45311 18.3652C6.50016 18.3457 6.54914 18.336 6.60006 18.336L17.4001 18.336C17.451 18.336 17.5 18.3457 17.547 18.3652C17.5941 18.3847 17.6356 18.4124 17.6716 18.4485C17.7076 18.4845 17.7353 18.526 17.7548 18.573C17.7743 18.6201 17.7841 18.6691 17.7841 18.72C17.7841 18.7709 17.7743 18.8199 17.7548 18.8669C17.7353 18.914 17.7076 18.9555 17.6716 18.9915C17.6356 19.0275 17.5941 19.0553 17.547 19.0747C17.5 19.0942 17.451 19.104 17.4001 19.104ZM17.4001 5.66399L6.60006 5.66399C6.54914 5.66399 6.50016 5.65425 6.45311 5.63476C6.40607 5.61527 6.36454 5.58753 6.32854 5.55152C6.29253 5.51551 6.26478 5.47399 6.24529 5.42694C6.22581 5.3799 6.21606 5.33091 6.21606 5.27999C6.21606 5.22907 6.22581 5.18009 6.24529 5.13304C6.26478 5.086 6.29253 5.04447 6.32854 5.00846C6.36454 4.97246 6.40607 4.94471 6.45311 4.92522C6.50016 4.90574 6.54914 4.89599 6.60006 4.89599L17.4001 4.89599C17.451 4.89599 17.5 4.90574 17.547 4.92522C17.5941 4.94471 17.6356 4.97246 17.6716 5.00846C17.7076 5.04447 17.7353 5.086 17.7548 5.13304C17.7743 5.18009 17.7841 5.22907 17.7841 5.27999C17.7841 5.33091 17.7743 5.3799 17.7548 5.42694C17.7353 5.47399 17.7076 5.51551 17.6716 5.55152C17.6356 5.58753 17.5941 5.61527 17.547 5.63476C17.5 5.65425 17.451 5.66399 17.4001 5.66399ZM12.4801 4.22399L11.5201 4.22399C11.4691 4.22399 11.4202 4.21425 11.3731 4.19476C11.3261 4.17528 11.2845 4.14753 11.2485 4.11152C11.2125 4.07551 11.1848 4.03399 11.1653 3.98694C11.1458 3.9399 11.1361 3.89091 11.1361 3.83999C11.1361 3.78907 11.1458 3.74009 11.1653 3.69304C11.1848 3.646 11.2125 3.60447 11.2485 3.56846C11.2845 3.53246 11.3261 3.50471 11.3731 3.48522C11.4202 3.46574 11.4691 3.45599 11.5201 3.45599L12.4801 3.45599C12.531 3.45599 12.58 3.46574 12.627 3.48522C12.6741 3.50471 12.7156 3.53246 12.7516 3.56846C12.7876 3.60447 12.8153 3.646 12.8348 3.69304C12.8543 3.74009 12.8641 3.78907 12.8641 3.83999C12.8641 3.89091 12.8543 3.9399 12.8348 3.98694C12.8153 4.03399 12.7876 4.07551 12.7516 4.11152C12.7156 4.14753 12.6741 4.17528 12.627 4.19476C12.58 4.21425 12.531 4.22399 12.4801 4.22399ZM12.9001 20.544L11.1001 20.544C11.0491 20.544 11.0002 20.5342 10.9531 20.5147C10.9061 20.4953 10.8645 20.4675 10.8285 20.4315C10.7925 20.3955 10.7648 20.354 10.7453 20.3069C10.7258 20.2599 10.7161 20.2109 10.7161 20.16C10.7161 20.1091 10.7258 20.0601 10.7453 20.013C10.7648 19.966 10.7925 19.9245 10.8285 19.8884C10.8645 19.8524 10.9061 19.8247 10.9531 19.8052C11.0002 19.7857 11.0491 19.776 11.1001 19.776L12.9001 19.776C12.951 19.776 13 19.7857 13.047 19.8052C13.0941 19.8247 13.1356 19.8524 13.1716 19.8885C13.2076 19.9245 13.2353 19.966 13.2548 20.013C13.2743 20.0601 13.2841 20.1091 13.2841 20.16C13.2841 20.2109 13.2743 20.2599 13.2548 20.3069C13.2353 20.354 13.2076 20.3955 13.1716 20.4315C13.1356 20.4675 13.0941 20.4953 13.047 20.5147C13 20.5342 12.951 20.544 12.9001 20.544ZM14.0597 4.22399L13.8197 4.22399C13.7688 4.22399 13.7198 4.21425 13.6728 4.19476C13.6257 4.17528 13.5842 4.14753 13.5482 4.11152C13.5122 4.07551 13.4845 4.03399 13.465 3.98694C13.4455 3.9399 13.4357 3.89091 13.4357 3.83999C13.4357 3.78907 13.4455 3.74009 13.465 3.69304C13.4845 3.646 13.5122 3.60447 13.5482 3.56846C13.5842 3.53246 13.6257 3.50471 13.6728 3.48522C13.7198 3.46574 13.7688 3.45599 13.8197 3.45599L14.0597 3.45599C14.1107 3.45599 14.1596 3.46574 14.2067 3.48522C14.2537 3.50471 14.2953 3.53246 14.3313 3.56846C14.3673 3.60447 14.395 3.646 14.4145 3.69304C14.434 3.74009 14.4437 3.78907 14.4437 3.83999C14.4437 3.89091 14.434 3.9399 14.4145 3.98694C14.395 4.03399 14.3673 4.07551 14.3313 4.11152C14.2953 4.14753 14.2537 4.17528 14.2067 4.19476C14.1596 4.21425 14.1107 4.22399 14.0597 4.22399ZM10.1804 4.22399L9.94038 4.22399C9.88946 4.22399 9.84048 4.21425 9.79343 4.19476C9.74639 4.17528 9.70486 4.14753 9.66886 4.11152C9.63285 4.07551 9.6051 4.03399 9.58562 3.98694C9.56613 3.9399 9.55639 3.89091 9.55639 3.83999C9.55639 3.78907 9.56613 3.74009 9.58561 3.69304C9.6051 3.646 9.63285 3.60447 9.66886 3.56846C9.70486 3.53246 9.74639 3.50471 9.79343 3.48522C9.84048 3.46574 9.88946 3.45599 9.94038 3.45599L10.1804 3.45599C10.2313 3.45599 10.2803 3.46574 10.3273 3.48522C10.3744 3.50471 10.4159 3.53246 10.4519 3.56846C10.4879 3.60447 10.5157 3.646 10.5352 3.69304C10.5546 3.74009 10.5644 3.78907 10.5644 3.83999C10.5644 3.89091 10.5546 3.9399 10.5352 3.98694C10.5157 4.03399 10.4879 4.07551 10.4519 4.11152C10.4159 4.14753 10.3744 4.17528 10.3273 4.19476C10.2803 4.21425 10.2313 4.22399 10.1804 4.22399Z" fill="rgb(192,108,94)" fill-rule="nonzero" />
		<path id="Форма 2" d="M14.9545 4.89599L17.4001 4.89599C17.451 4.89599 17.5 4.90574 17.547 4.92522C17.5941 4.94471 17.6356 4.97246 17.6716 5.00846C17.7076 5.04447 17.7353 5.086 17.7548 5.13304C17.7646 5.15656 17.7719 5.18057 17.7768 5.20506C17.7816 5.22955 17.7841 5.25453 17.7841 5.27999C17.7841 5.33091 17.7743 5.3799 17.7548 5.42694C17.7353 5.47399 17.7076 5.51551 17.6716 5.55152C17.6356 5.58753 17.5941 5.61527 17.547 5.63476C17.5 5.65425 17.451 5.66399 17.4001 5.66399L6.60006 5.66399C6.54914 5.66399 6.50016 5.65425 6.45311 5.63476C6.42959 5.62502 6.40745 5.61321 6.38668 5.59934C6.36592 5.58546 6.34654 5.56952 6.32854 5.55152C6.29253 5.51551 6.26478 5.47399 6.24529 5.42694C6.22581 5.3799 6.21606 5.33091 6.21606 5.27999C6.21606 5.25453 6.2185 5.22955 6.22337 5.20506C6.22824 5.18057 6.23555 5.15656 6.24529 5.13304C6.26478 5.086 6.29253 5.04447 6.32854 5.00846C6.34654 4.99046 6.36592 4.97452 6.38669 4.96065C6.40745 4.94677 6.42959 4.93497 6.45311 4.92522C6.47664 4.91548 6.50064 4.90817 6.52513 4.9033C6.54963 4.89843 6.5746 4.89599 6.60006 4.89599L14.9545 4.89599ZM12.4899 4.22387C12.5373 4.2227 12.583 4.213 12.627 4.19476C12.6741 4.17528 12.7156 4.14753 12.7516 4.11152C12.7876 4.07551 12.8153 4.03399 12.8348 3.98694C12.8471 3.95739 12.8555 3.92707 12.86 3.89599C12.8627 3.87759 12.8641 3.85893 12.8641 3.83999C12.8641 3.78907 12.8543 3.74009 12.8348 3.69304C12.8153 3.646 12.7876 3.60447 12.7516 3.56846C12.7156 3.53246 12.6741 3.50471 12.627 3.48522C12.583 3.46699 12.5373 3.45729 12.4899 3.45611L12.4801 3.45599L12.0018 3.45599C12.0126 3.46946 12.0227 3.48334 12.0323 3.49762C12.0546 3.53095 12.0735 3.5665 12.0892 3.60426C12.1048 3.64201 12.1165 3.68053 12.1243 3.71983C12.1322 3.75911 12.1361 3.79917 12.1361 3.84C12.1361 3.85883 12.1352 3.87749 12.1336 3.89599L11.8666 3.89599C11.8649 3.8775 11.8641 3.85884 11.8641 3.84001C11.8641 3.79901 11.868 3.75879 11.8759 3.71936C11.8837 3.68022 11.8954 3.64185 11.911 3.60426C11.9266 3.56651 11.9455 3.53097 11.9678 3.49766C11.9774 3.48336 11.9875 3.46947 11.9983 3.45599L11.5201 3.45599L11.5103 3.45611C11.4882 3.45666 11.4665 3.45906 11.4451 3.4633C11.4206 3.46818 11.3966 3.47548 11.3731 3.48522C11.3261 3.50471 11.2845 3.53246 11.2485 3.56846C11.2305 3.58647 11.2146 3.60585 11.2007 3.62662C11.1868 3.64738 11.175 3.66952 11.1653 3.69304C11.1458 3.74009 11.1361 3.78907 11.1361 3.83999C11.1361 3.85893 11.1374 3.87759 11.1401 3.89599C11.1447 3.92707 11.1531 3.95739 11.1653 3.98694C11.175 4.01047 11.1868 4.03261 11.2007 4.05337C11.2146 4.07413 11.2305 4.09352 11.2485 4.11152C11.2845 4.14753 11.3261 4.17528 11.3731 4.19476C11.3966 4.2045 11.4206 4.21181 11.4451 4.21668C11.4665 4.22093 11.4882 4.22333 11.5103 4.22387C11.5135 4.22395 11.5168 4.22399 11.5201 4.22399L12.4801 4.22399L12.4899 4.22387ZM10.5603 3.89599C10.563 3.87759 10.5644 3.85893 10.5644 3.83999C10.5644 3.81453 10.5619 3.78956 10.5571 3.76507C10.5538 3.74863 10.5494 3.73242 10.544 3.71642C10.5413 3.70858 10.5384 3.70078 10.5352 3.69304C10.5157 3.646 10.4879 3.60447 10.4519 3.56846C10.4159 3.53246 10.3744 3.50471 10.3273 3.48522C10.2833 3.46699 10.2376 3.45729 10.1902 3.45611C10.1793 3.49379 10.17 3.5318 10.1624 3.57013C10.1448 3.65834 10.1361 3.74829 10.1361 3.83998C10.1361 3.85873 10.1364 3.8774 10.1372 3.89599L9.56688 3.89599C9.56522 3.87749 9.56438 3.85883 9.56438 3.84C9.56438 3.79909 9.5683 3.75897 9.57614 3.71962C9.57636 3.71855 9.57657 3.71748 9.57679 3.71641C9.56319 3.75625 9.55639 3.79745 9.55639 3.83999C9.55639 3.85893 9.55773 3.87759 9.56043 3.89599C9.56135 3.90233 9.56244 3.90864 9.56369 3.91492C9.56696 3.93136 9.57133 3.94757 9.57679 3.96357C9.57947 3.97141 9.58241 3.97921 9.58562 3.98694C9.6051 4.03399 9.63285 4.07551 9.66886 4.11152C9.70486 4.14753 9.74639 4.17528 9.79343 4.19476C9.84048 4.21425 9.88946 4.22399 9.94038 4.22399L10.1804 4.22399L10.1902 4.22387C10.2376 4.2227 10.2833 4.213 10.3273 4.19476C10.3744 4.17528 10.4159 4.14753 10.4519 4.11152C10.4879 4.07551 10.5157 4.03399 10.5352 3.98694C10.5384 3.9792 10.5413 3.97141 10.544 3.96357C10.5515 3.94146 10.557 3.91893 10.5603 3.89599ZM14.4397 3.89599C14.4424 3.87759 14.4437 3.85893 14.4437 3.83999C14.4437 3.81453 14.4413 3.78956 14.4364 3.76507C14.4332 3.74863 14.4288 3.73241 14.4233 3.71641C14.4236 3.71753 14.4238 3.71864 14.424 3.71976C14.4318 3.75906 14.4357 3.79915 14.4357 3.84001C14.4357 3.85884 14.4349 3.8775 14.4333 3.89599L13.863 3.89599C13.8637 3.87739 13.8641 3.85872 13.8641 3.83997C13.8641 3.7482 13.8553 3.65816 13.8377 3.56988C13.8301 3.53163 13.8208 3.49371 13.8099 3.45611C13.7879 3.45666 13.7662 3.45906 13.7448 3.4633C13.7203 3.46817 13.6963 3.47548 13.6728 3.48522C13.6257 3.50471 13.5842 3.53246 13.5482 3.56846C13.5122 3.60447 13.4845 3.646 13.465 3.69304C13.4618 3.70078 13.4588 3.70857 13.4562 3.71641C13.4425 3.75625 13.4357 3.79745 13.4357 3.83999C13.4357 3.85893 13.4371 3.87759 13.4398 3.89599C13.4431 3.91893 13.4486 3.94146 13.4561 3.96357C13.4588 3.97141 13.4618 3.9792 13.465 3.98694C13.4845 4.03399 13.5122 4.07551 13.5482 4.11152C13.5842 4.14753 13.6257 4.17528 13.6728 4.19476C13.6963 4.20451 13.7203 4.21182 13.7448 4.21669C13.7662 4.22093 13.7879 4.22333 13.8099 4.22387C13.8132 4.22395 13.8165 4.22399 13.8197 4.22399L14.0597 4.22399C14.1107 4.22399 14.1596 4.21425 14.2067 4.19476C14.2537 4.17528 14.2953 4.14753 14.3313 4.11152C14.3673 4.07551 14.395 4.03399 14.4145 3.98694C14.4177 3.9792 14.4207 3.97141 14.4233 3.96356C14.4288 3.94756 14.4332 3.93135 14.4364 3.91492C14.4377 3.90864 14.4388 3.90234 14.4397 3.89599ZM16.9183 19.104L17.4001 19.104C17.451 19.104 17.5 19.0942 17.547 19.0747C17.5941 19.0553 17.6356 19.0275 17.6716 18.9915C17.7076 18.9555 17.7353 18.914 17.7548 18.8669C17.7646 18.8434 17.7719 18.8194 17.7768 18.7949C17.7816 18.7704 17.7841 18.7454 17.7841 18.72C17.7841 18.6691 17.7743 18.6201 17.7548 18.573C17.7353 18.526 17.7076 18.4845 17.6716 18.4485C17.6356 18.4124 17.5941 18.3847 17.547 18.3652C17.5 18.3457 17.451 18.336 17.4001 18.336L6.60006 18.336C6.5746 18.336 6.54962 18.3384 6.52513 18.3433C6.50064 18.3482 6.47663 18.3555 6.45311 18.3652C6.40607 18.3847 6.36454 18.4124 6.32854 18.4485C6.29253 18.4845 6.26478 18.526 6.24529 18.573C6.22581 18.6201 6.21606 18.6691 6.21606 18.72C6.21606 18.7454 6.2185 18.7704 6.22337 18.7949C6.22824 18.8194 6.23555 18.8434 6.24529 18.8669C6.26478 18.914 6.29253 18.9555 6.32854 18.9915C6.36454 19.0275 6.40607 19.0553 6.45311 19.0747C6.50016 19.0942 6.54914 19.104 6.60006 19.104L16.9183 19.104ZM10.7201 20.104C10.7174 20.1224 10.7161 20.141 10.7161 20.16C10.7161 20.2109 10.7258 20.2599 10.7453 20.3069C10.7648 20.354 10.7925 20.3955 10.8285 20.4315C10.8465 20.4495 10.8659 20.4654 10.8866 20.4793C10.9074 20.4932 10.9296 20.505 10.9531 20.5147C11.0002 20.5342 11.0491 20.544 11.1001 20.544L12.9001 20.544C12.951 20.544 13 20.5342 13.047 20.5147C13.0941 20.4953 13.1356 20.4675 13.1716 20.4315C13.2076 20.3955 13.2353 20.354 13.2548 20.3069C13.2743 20.2599 13.2841 20.2109 13.2841 20.16C13.2841 20.141 13.2827 20.1224 13.28 20.104C13.2755 20.0729 13.2671 20.0426 13.2548 20.013C13.2353 19.966 13.2076 19.9245 13.1716 19.8885C13.1356 19.8524 13.0941 19.8247 13.047 19.8052C13 19.7857 12.951 19.776 12.9001 19.776L11.1001 19.776C11.0746 19.776 11.0496 19.7784 11.0251 19.7833C11.0006 19.7882 10.9766 19.7955 10.9531 19.8052C10.9061 19.8247 10.8645 19.8524 10.8285 19.8884C10.7925 19.9245 10.7648 19.966 10.7453 20.013C10.7331 20.0426 10.7247 20.0729 10.7201 20.104Z" fill="rgb(192,108,94)" fill-rule="evenodd" />
	</g>
</svg>
