<svg viewBox="0 0 44 44" xmlns="http://www.w3.org/2000/svg" xmlns:xlink="http://www.w3.org/1999/xlink" width="44.000031" height="44.000000" fill="none">
	<rect id="icon phone" width="44.000038" height="44.000000" x="0.000000" y="0.000000" />
	<g id="Сочетание 1">
		<path id="Форма 1" d="M30.3301 40.3038L13.6699 40.3038C13.5207 40.3037 13.3728 40.289 13.2265 40.2597C13.0801 40.2305 12.9379 40.1873 12.8001 40.1301C12.6622 40.0729 12.5312 40.0029 12.4071 39.9199C12.283 39.8369 12.1682 39.7427 12.0627 39.6371C11.9571 39.5316 11.8629 39.4168 11.7799 39.2927C11.6969 39.1686 11.6269 39.0376 11.5697 38.8997C11.5125 38.7619 11.4693 38.6197 11.4401 38.4734C11.4108 38.327 11.3961 38.1792 11.396 38.0299L11.396 5.96972C11.3961 5.82045 11.4108 5.67263 11.4401 5.52625C11.4693 5.37988 11.5125 5.23775 11.5697 5.09987C11.6269 4.96199 11.6969 4.83101 11.7799 4.70692C11.8629 4.58283 11.9571 4.46801 12.0627 4.36246C12.1682 4.25691 12.283 4.16266 12.4071 4.0797C12.5312 3.99674 12.6622 3.92667 12.8001 3.86948C12.9379 3.81229 13.0801 3.76908 13.2264 3.73986C13.3728 3.71063 13.5207 3.69595 13.6699 3.6958L30.3301 3.6958C30.4794 3.69595 30.6272 3.71063 30.7736 3.73986C30.9199 3.76908 31.0621 3.81229 31.1999 3.86948C31.3378 3.92667 31.4688 3.99674 31.5929 4.0797C31.717 4.16266 31.8318 4.25691 31.9374 4.36246C32.0429 4.46801 32.1372 4.58283 32.2201 4.70692C32.3031 4.83101 32.3732 4.96199 32.4303 5.09987C32.4875 5.23775 32.5307 5.37988 32.56 5.52625C32.5892 5.67263 32.6039 5.82045 32.604 5.96972L32.604 38.0299C32.6039 38.1792 32.5892 38.327 32.56 38.4734C32.5307 38.6197 32.4875 38.7619 32.4303 38.8997C32.3731 39.0376 32.3031 39.1686 32.2201 39.2927C32.1372 39.4168 32.0429 39.5316 31.9374 39.6371C31.8318 39.7427 31.717 39.8369 31.5929 39.9199C31.4688 40.0029 31.3378 40.0729 31.1999 40.1301C31.0621 40.1873 30.9199 40.2305 30.7736 40.2597C30.6272 40.289 30.4794 40.3037 30.3301 40.3038ZM13.6699 5.1038C13.6131 5.10386 13.5568 5.10945 13.501 5.12058C13.4453 5.13172 13.3912 5.14817 13.3387 5.16995C13.2862 5.19173 13.2363 5.21841 13.189 5.25C13.1418 5.2816 13.0981 5.31749 13.0579 5.35768C13.0177 5.39787 12.9818 5.4416 12.9502 5.48885C12.9186 5.5361 12.8919 5.58598 12.8701 5.63848C12.8484 5.69099 12.8319 5.74511 12.8208 5.80085C12.8097 5.85659 12.8041 5.91288 12.804 5.96972L12.804 38.0299C12.8041 38.0867 12.8097 38.143 12.8208 38.1988C12.8319 38.2545 12.8484 38.3086 12.8701 38.3611C12.8919 38.4136 12.9186 38.4635 12.9502 38.5108C12.9818 38.558 13.0177 38.6017 13.0579 38.6419C13.0981 38.6821 13.1418 38.718 13.189 38.7496C13.2363 38.7812 13.2862 38.8079 13.3387 38.8297C13.3912 38.8514 13.4453 38.8679 13.501 38.879C13.5568 38.8902 13.6131 38.8957 13.6699 38.8958L30.3301 38.8958C30.3869 38.8957 30.4432 38.8902 30.499 38.879C30.5547 38.8679 30.6088 38.8514 30.6613 38.8297C30.7138 38.8079 30.7637 38.7812 30.811 38.7496C30.8582 38.718 30.9019 38.6821 30.9421 38.6419C30.9823 38.6017 31.0182 38.558 31.0498 38.5108C31.0814 38.4635 31.1081 38.4136 31.1299 38.3611C31.1516 38.3086 31.1681 38.2545 31.1792 38.1988C31.1904 38.143 31.196 38.0867 31.196 38.0299L31.196 5.96972C31.196 5.91288 31.1904 5.85659 31.1792 5.80085C31.1681 5.74511 31.1516 5.69099 31.1299 5.63848C31.1081 5.58598 31.0814 5.5361 31.0498 5.48885C31.0182 5.4416 30.9823 5.39787 30.9421 5.35768C30.9019 5.31749 30.8582 5.2816 30.811 5.25C30.7637 5.21841 30.7138 5.19173 30.6613 5.16995C30.6088 5.14817 30.5547 5.13172 30.499 5.12058C30.4432 5.10945 30.3869 5.10386 30.3301 5.1038L13.6699 5.1038Z" fill="rgb(255,255,255)" fill-rule="nonzero" />
		<path id="Форма 2" d="M31.9 35.0239L12.1 35.0239C12.0066 35.0239 11.9168 35.0061 11.8306 34.9704C11.7443 34.9346 11.6682 34.8838 11.6022 34.8177C11.5362 34.7517 11.4853 34.6756 11.4496 34.5893C11.4139 34.5031 11.396 34.4133 11.396 34.3199C11.396 34.2266 11.4139 34.1368 11.4496 34.0505C11.4853 33.9643 11.5362 33.8881 11.6022 33.8221C11.6682 33.7561 11.7443 33.7053 11.8306 33.6695C11.9168 33.6338 12.0066 33.6159 12.1 33.6159L31.9 33.6159C31.9934 33.6159 32.0832 33.6338 32.1694 33.6695C32.2557 33.7053 32.3318 33.7561 32.3978 33.8221C32.4638 33.8881 32.5147 33.9643 32.5504 34.0505C32.5862 34.1368 32.604 34.2266 32.604 34.3199C32.604 34.4133 32.5862 34.5031 32.5504 34.5893C32.5147 34.6756 32.4638 34.7517 32.3978 34.8177C32.3318 34.8838 32.2557 34.9346 32.1694 34.9704C32.0832 35.0061 31.9934 35.0239 31.9 35.0239ZM31.9 10.3839L12.1 10.3839C12.0066 10.3839 11.9168 10.3661 11.8306 10.3303C11.7443 10.2946 11.6682 10.2438 11.6022 10.1777C11.5362 10.1117 11.4853 10.0356 11.4496 9.94935C11.4139 9.8631 11.396 9.77329 11.396 9.67994C11.396 9.58658 11.4139 9.49678 11.4496 9.41053C11.4853 9.32428 11.5362 9.24815 11.6022 9.18213C11.6682 9.11612 11.7443 9.06525 11.8306 9.02953C11.9168 8.9938 12.0066 8.97594 12.1 8.97594L31.9 8.97594C31.9934 8.97594 32.0832 8.9938 32.1694 9.02953C32.2557 9.06525 32.3318 9.11612 32.3978 9.18213C32.4638 9.24815 32.5147 9.32428 32.5504 9.41053C32.5862 9.49678 32.604 9.58658 32.604 9.67994C32.604 9.77329 32.5862 9.8631 32.5504 9.94935C32.5147 10.0356 32.4638 10.1117 32.3978 10.1777C32.3318 10.2438 32.2557 10.2946 32.1694 10.3303C32.0832 10.3661 31.9934 10.3839 31.9 10.3839ZM22.88 7.74394L21.12 7.74394C21.0266 7.74394 20.9368 7.72607 20.8506 7.69035C20.7643 7.65462 20.6882 7.60375 20.6222 7.53774C20.5562 7.47173 20.5053 7.3956 20.4696 7.30935C20.4339 7.2231 20.416 7.13329 20.416 7.03994C20.416 6.94658 20.4339 6.85678 20.4696 6.77053C20.5053 6.68428 20.5562 6.60815 20.6222 6.54213C20.6882 6.47612 20.7643 6.42525 20.8506 6.38953C20.9368 6.3538 21.0266 6.33594 21.12 6.33594L22.88 6.33594C22.9734 6.33594 23.0632 6.3538 23.1494 6.38953C23.2357 6.42525 23.3118 6.47612 23.3778 6.54213C23.4438 6.60815 23.4947 6.68428 23.5304 6.77053C23.5661 6.85678 23.584 6.94658 23.584 7.03994C23.584 7.13329 23.5661 7.2231 23.5304 7.30935C23.4947 7.3956 23.4438 7.47173 23.3778 7.53774C23.3118 7.60375 23.2357 7.65462 23.1494 7.69035C23.0632 7.72607 22.9734 7.74394 22.88 7.74394ZM23.65 37.6639L20.35 37.6639C20.2566 37.6639 20.1668 37.6461 20.0806 37.6104C19.9943 37.5746 19.9182 37.5238 19.8522 37.4577C19.7862 37.3917 19.7353 37.3156 19.6996 37.2293C19.6639 37.1431 19.646 37.0533 19.646 36.9599C19.646 36.8666 19.6639 36.7768 19.6996 36.6905C19.7353 36.6043 19.7862 36.5281 19.8522 36.4621C19.9182 36.3961 19.9943 36.3453 20.0806 36.3095C20.1668 36.2738 20.2566 36.2559 20.35 36.2559L23.65 36.2559C23.7434 36.2559 23.8332 36.2738 23.9194 36.3095C24.0057 36.3453 24.0818 36.3961 24.1478 36.4621C24.2138 36.5281 24.2647 36.6043 24.3004 36.6905C24.3361 36.7768 24.354 36.8666 24.354 36.9599C24.354 37.0533 24.3361 37.1431 24.3004 37.2293C24.2647 37.3156 24.2138 37.3917 24.1478 37.4577C24.0818 37.5238 24.0057 37.5746 23.9194 37.6103C23.8332 37.6461 23.7434 37.6639 23.65 37.6639ZM25.7761 7.74394L25.3361 7.74394C25.2427 7.74394 25.1529 7.72607 25.0667 7.69035C24.9804 7.65462 24.9043 7.60375 24.8383 7.53774C24.7723 7.47173 24.7214 7.3956 24.6857 7.30935C24.65 7.2231 24.6321 7.13329 24.6321 7.03994C24.6321 6.94658 24.65 6.85678 24.6857 6.77053C24.7214 6.68428 24.7723 6.60815 24.8383 6.54213C24.9043 6.47612 24.9804 6.42525 25.0667 6.38953C25.1529 6.3538 25.2427 6.33594 25.3361 6.33594L25.7761 6.33594C25.8694 6.33594 25.9592 6.3538 26.0455 6.38953C26.1318 6.42525 26.2079 6.47612 26.2739 6.54213C26.3399 6.60815 26.3908 6.68428 26.4265 6.77053C26.4622 6.85678 26.4801 6.94658 26.4801 7.03994C26.4801 7.13329 26.4622 7.2231 26.4265 7.30935C26.3908 7.3956 26.3399 7.47173 26.2739 7.53774C26.2079 7.60375 26.1318 7.65462 26.0455 7.69035C25.9592 7.72607 25.8694 7.74394 25.7761 7.74394ZM18.6639 7.74394L18.2239 7.74394C18.1306 7.74394 18.0408 7.72607 17.9545 7.69035C17.8683 7.65462 17.7921 7.60375 17.7261 7.53774C17.6601 7.47173 17.6092 7.3956 17.5735 7.30935C17.5378 7.2231 17.5199 7.13329 17.5199 7.03994C17.5199 6.94658 17.5378 6.85678 17.5735 6.77053C17.6092 6.68428 17.6601 6.60815 17.7261 6.54213C17.7921 6.47612 17.8683 6.42525 17.9545 6.38953C18.0408 6.3538 18.1306 6.33594 18.2239 6.33594L18.6639 6.33594C18.7573 6.33594 18.8471 6.3538 18.9333 6.38953C19.0196 6.42525 19.0957 6.47612 19.1617 6.54213C19.2277 6.60815 19.2786 6.68428 19.3143 6.77053C19.3501 6.85678 19.3679 6.94658 19.3679 7.03994C19.3679 7.13329 19.3501 7.2231 19.3143 7.30935C19.2786 7.3956 19.2277 7.47173 19.1617 7.53774C19.0957 7.60375 19.0196 7.65462 18.9333 7.69035C18.8471 7.72607 18.7573 7.74394 18.6639 7.74394Z" fill="rgb(255,255,255)" fill-rule="nonzero" />
	</g>
</svg>
