<svg viewBox="0 0 53.5706 53.5703" xmlns="http://www.w3.org/2000/svg" xmlns:xlink="http://www.w3.org/1999/xlink" width="53.570618" height="53.570312" fill="none" customFrame="#000000">
	<rect id="Сочетание 11" width="52.000198" height="52.000000" x="0.785278" y="0.785156" />
	<path id="Форма 21" d="M25.7965 43.9205L25.7965 40.1736C25.7965 39.5957 25.3278 39.1273 24.7497 39.1273L23.4935 39.1273C22.9153 39.1273 22.4466 39.5957 22.4466 40.1736L22.4466 43.961M43.8745 22.5053L40.1244 22.5053C39.5462 22.5053 39.0776 22.9737 39.0776 23.5516L39.0776 24.8071C39.0776 25.385 39.5462 25.8534 40.1244 25.8534M22.4466 4.3645L22.4466 8.18509C22.4466 8.76295 22.9153 9.23137 23.4935 9.23137L24.7497 9.23137C25.3278 9.23137 25.7965 8.76295 25.7965 8.18509L25.7965 4.378M4.34447 25.8534L8.11874 25.8534C8.69691 25.8534 9.16558 25.385 9.16558 24.8071L9.16558 23.5516C9.16558 22.9737 8.69691 22.5053 8.11874 22.5053L4.30396 22.5053" fill-rule="nonzero" stroke="rgb(192,108,94)" stroke-linecap="round" stroke-linejoin="round" stroke-width="1.57025313" />
	<path id="Форма 22" d="M0.785383 26.0103C1.7199 38.0747 11.8108 47.5735 24.1214 47.5735C26.9864 47.5735 29.7311 47.059 32.2682 46.1175M39.2736 6.34759C35.1904 2.87834 29.9005 0.785156 24.1215 0.785156C11.8103 0.785156 1.71906 10.2846 0.785278 22.3499M47.1624 28.3221C47.4069 26.952 47.5289 25.571 47.5282 24.1793C47.5282 18.3532 45.3974 13.0245 41.8721 8.92939M30.9258 43.0003C28.8016 43.7675 26.5104 44.1858 24.1215 44.1858C13.0664 44.1858 4.10428 35.2286 4.10428 24.1793C4.10428 13.13 13.0663 4.1728 24.1215 4.1728C35.1768 4.1728 44.1388 13.13 44.1388 24.1793C44.1388 25.0746 44.0799 25.9561 43.966 26.8203" fill-rule="nonzero" stroke="rgb(192,108,94)" stroke-linecap="round" stroke-linejoin="round" stroke-width="1.57025313" />
	<path id="Форма 23" d="M21.2829 25.7217L14.7593 25.7217C13.907 25.7217 13.2159 25.0311 13.2159 24.1792C13.2159 23.3273 13.907 22.6367 14.7593 22.6367L21.3031 22.6367M25.0062 21.1135L32.3783 13.7453C32.9811 13.1428 33.9582 13.1428 34.561 13.7453C35.1638 14.3476 35.1638 15.3244 34.561 15.9268L27.1749 23.3089M22.3195 26.8751L16.7584 34.2993" fill-rule="nonzero" stroke="rgb(192,108,94)" stroke-linecap="round" stroke-linejoin="round" stroke-width="1.57025313" />
	<ellipse id="Эллипс 4" rx="3.129111" ry="3.127430" cx="24.121542" cy="24.1791878" stroke="rgb(192,108,94)" stroke-linecap="round" stroke-linejoin="round" stroke-width="1.57025313" />
	<path id="Форма 24" d="M14.2734 7.13086L15.4892 9.23555M7.06403 14.3364L9.16985 15.5515M7.06403 34.0221L9.16985 32.8069M14.2734 41.2276L15.4892 39.1229M41.1791 14.3364L39.0731 15.5515M33.9697 7.13086L32.7539 9.23555M52.7138 37.2011C52.5412 39.4499 52.0575 41.6573 51.2698 43.7853C50.1993 46.6772 48.1319 49.1086 45.4486 50.6316L41.9291 52.629C41.7458 52.733 41.5487 52.7851 41.3378 52.7851C41.127 52.7851 40.9299 52.733 40.7465 52.629L37.2268 50.6314C34.5438 49.1087 32.4766 46.6771 31.4058 43.7851C30.3937 41.0559 29.8886 38.2359 29.8903 35.3252L29.8903 30.5593C29.8903 29.925 30.3859 29.4063 31.0193 29.365C34.5316 29.1358 37.8545 27.8395 40.5865 25.636C40.6928 25.5501 40.8104 25.4844 40.9394 25.4388C41.0683 25.3933 41.2011 25.3705 41.3378 25.3705C41.4746 25.3705 41.6074 25.3933 41.7363 25.4388C41.8652 25.4844 41.9828 25.5501 42.0892 25.636C44.8212 27.8395 48.1442 29.1358 51.6565 29.365C52.2898 29.4063 52.7855 29.925 52.7855 30.5593L52.7855 33.539" fill-rule="nonzero" stroke="rgb(192,108,94)" stroke-linecap="round" stroke-linejoin="round" stroke-width="1.57025313" />
	<path id="Форма 25" d="M35.6962 44.3822C35.3221 43.8013 35.0151 43.187 34.7751 42.5391C33.9122 40.2119 33.4814 37.8073 33.4829 35.3254L33.4829 32.68C36.3217 32.1819 38.94 31.1335 41.3378 29.5349C43.7356 31.1334 46.3539 32.1819 49.1927 32.6803L49.1927 35.3254C49.1927 37.7956 48.7579 40.2226 47.9002 42.5395C47.5104 43.5906 46.9524 44.5431 46.2262 45.3973C45.4999 46.2514 44.6493 46.9555 43.6743 47.5095L41.3378 48.8355L39.0007 47.5092C38.7378 47.36 38.4826 47.1985 38.235 47.0249" fill-rule="nonzero" stroke="rgb(192,108,94)" stroke-linecap="round" stroke-linejoin="round" stroke-width="1.57025313" />
	<path id="Форма 26" d="M45.1076 35.3701L40.3187 43L37.5682 39.0562" fill-rule="nonzero" stroke="rgb(192,108,94)" stroke-linecap="round" stroke-linejoin="round" stroke-width="1.57025313" />
</svg>
