<svg viewBox="0 0 24 24" xmlns="http://www.w3.org/2000/svg" xmlns:xlink="http://www.w3.org/1999/xlink" width="24.000000" height="24.000000" fill="none" customFrame="#000000">
	<rect id="Сочетание 7" width="24.000000" height="24.000000" x="0.000000" y="0.000000" />
	<path id="Форма 7" d="M22.5824 1.19702C22.1924 1.19941 21.8601 1.34706 21.5852 1.63997C21.5852 1.63997 15.6552 7.90659 12.0539 11.7169L9.5159 9.02975C9.38311 8.8895 9.23004 8.78143 9.0567 8.70555C8.88337 8.62967 8.70292 8.59172 8.51535 8.59172C8.32778 8.59172 8.14732 8.62967 7.97399 8.70555C7.80065 8.78143 7.64758 8.8895 7.51479 9.02975C7.38232 9.17036 7.28025 9.33242 7.20858 9.51594C7.13691 9.69947 7.10107 9.89053 7.10107 10.0891C7.10107 10.2877 7.13691 10.4788 7.20858 10.6623C7.28025 10.8458 7.38232 11.0079 7.51479 11.1485L11.0567 14.8986C11.1895 15.0388 11.3426 15.1469 11.5159 15.2227C11.6893 15.2986 11.8697 15.3365 12.0573 15.3365C12.2448 15.3365 12.4253 15.2986 12.5986 15.2227C12.7719 15.1469 12.925 15.0388 13.0578 14.8986C16.4088 11.3526 23.5864 3.75872 23.5864 3.75872C23.7188 3.61812 23.8208 3.45607 23.8925 3.27257C23.9641 3.08907 23.9999 2.89804 23.9999 2.69948C23.9999 2.50092 23.9641 2.30989 23.8925 2.12639C23.8208 1.94289 23.7188 1.78084 23.5864 1.64024C23.3097 1.34523 22.975 1.19749 22.5824 1.19702L22.5824 1.19702Z" fill="rgb(192,108,94)" fill-rule="nonzero" />
	<path id="Форма 8" d="M11.3364 2.67847e-06C5.0931 2.67847e-06 0 5.38686 0 11.9972C0 18.6075 5.0931 24 11.3364 24C16.4599 24 20.9575 20.3443 22.2836 15.1048C22.5403 14.0868 22.6682 13.0509 22.6673 11.9972C22.6673 11.7984 22.6314 11.6072 22.5597 11.4236C22.4879 11.2399 22.3857 11.0778 22.253 10.9372C22.1203 10.7965 21.9673 10.6881 21.794 10.6119C21.6206 10.5356 21.4401 10.4974 21.2523 10.4971C21.0646 10.4974 20.8841 10.5356 20.7107 10.6119C20.5373 10.6881 20.3843 10.7965 20.2517 10.9372C20.119 11.0778 20.0168 11.2399 19.945 11.4236C19.8732 11.6072 19.8373 11.7984 19.8373 11.9972C19.8373 12.7836 19.7363 13.5697 19.544 14.3294C18.5464 18.271 15.1909 21.0034 11.3364 21.0034C6.62482 21.0034 2.83001 16.9858 2.83001 11.9972C2.83001 7.00862 6.62457 2.99636 11.3362 2.99636C12.0794 2.99636 12.8159 3.10335 13.5336 3.30664C13.7151 3.3582 13.899 3.37102 14.0853 3.34511C14.2716 3.31921 14.4461 3.25654 14.6088 3.15712C14.7716 3.05769 14.9102 2.92907 15.0246 2.77127C15.139 2.61347 15.2205 2.43849 15.2692 2.24633L15.2695 2.24446C15.3181 2.05232 15.3303 1.85762 15.3058 1.66037C15.2813 1.46313 15.2221 1.27835 15.1282 1.10603C15.0343 0.933717 14.9128 0.786988 14.7638 0.665846C14.6148 0.544704 14.4495 0.458371 14.268 0.406847L14.266 0.406312C13.3063 0.134595 12.3298 -0.000840955 11.3364 3.82639e-06L11.3364 2.67847e-06Z" fill="rgb(192,108,94)" fill-rule="nonzero" />
</svg>
