<svg viewBox="0 0 52.0002 52" xmlns="http://www.w3.org/2000/svg" xmlns:xlink="http://www.w3.org/1999/xlink" width="52.000183" height="52.000000" fill="none">
	<rect id="icon_individ" width="52.000198" height="52.000000" x="0.000000" y="0.000000" />
	<g id="Сочетание 10">
		<path id="Форма 18" d="M42.2501 3.25L34.125 3.25L34.123 3.2501C33.3811 2.26403 32.2014 1.625 30.8751 1.625L28.8042 1.625C28.231 0.633953 27.1661 0 26.0001 0C24.834 0 23.7691 0.633953 23.1959 1.625L21.1251 1.625C19.7987 1.625 18.6191 2.26403 17.8772 3.2501L17.875 3.25L9.75002 3.25C7.50994 3.25 5.6875 5.07244 5.6875 7.3125L5.6875 47.9375C5.6875 50.1776 7.50994 52 9.75002 52L42.2501 52C44.4902 52 46.3127 50.1776 46.3127 47.9375L46.3127 7.3125C46.3127 5.07244 44.4902 3.25 42.2501 3.25ZM18.6875 5.6875C18.6875 4.34352 19.7811 3.25 21.1251 3.25L23.7119 3.25C23.8838 3.24999 24.0399 3.20043 24.1804 3.10131C24.3208 3.00219 24.4198 2.87165 24.4774 2.70969C24.708 2.06091 25.3199 1.625 26.0001 1.625C26.6802 1.625 27.2922 2.06091 27.5227 2.70969C27.5803 2.87165 27.6793 3.00219 27.8198 3.10131C27.9602 3.20043 28.1164 3.24999 28.2883 3.25L30.8751 3.25C32.2191 3.25 33.3126 4.34352 33.3126 5.6875L33.3126 8.125L18.6875 8.125L18.6875 5.6875ZM44.6876 47.9375C44.6876 49.2815 43.5941 50.375 42.2501 50.375L9.75002 50.375C8.40603 50.375 7.31251 49.2815 7.31251 47.9375L7.31251 7.3125C7.31251 5.96852 8.40603 4.875 9.75002 4.875L17.1443 4.875C17.0897 5.14308 17.0625 5.41392 17.0625 5.6875L17.0625 8.9375C17.0625 9.04524 17.0832 9.14889 17.1244 9.24843C17.1656 9.34797 17.2243 9.43584 17.3005 9.51202C17.3767 9.58821 17.4646 9.64692 17.5641 9.68815C17.6637 9.72938 17.7673 9.75 17.875 9.75L34.1251 9.75C34.2328 9.75 34.3365 9.72938 34.436 9.68815C34.5356 9.64692 34.6234 9.58821 34.6996 9.51202C34.7758 9.43584 34.8345 9.34797 34.8758 9.24843C34.917 9.14889 34.9376 9.04524 34.9376 8.9375L34.9376 5.6875C34.9376 5.40932 34.9094 5.13764 34.8559 4.875L42.2501 4.875C43.5941 4.875 44.6876 5.96852 44.6876 7.3125L44.6876 47.9375Z" fill="rgb(192,108,94)" fill-rule="nonzero" />
		<path id="Форма 19" d="M42.2501 6.5L37.3751 6.5C37.2674 6.5 37.1637 6.52062 37.0642 6.56185C36.9646 6.60308 36.8768 6.66179 36.8006 6.73798C36.7244 6.81416 36.6657 6.90203 36.6245 7.00157C36.5832 7.10111 36.5626 7.20476 36.5626 7.3125C36.5626 7.42024 36.5832 7.52389 36.6245 7.62343C36.6657 7.72297 36.7244 7.81084 36.8006 7.88702C36.8768 7.96321 36.9646 8.02192 37.0642 8.06315C37.1637 8.10438 37.2674 8.125 37.3751 8.125L41.4376 8.125L41.4376 47.125L10.5625 47.125L10.5625 8.125L14.625 8.125C14.7328 8.125 14.8364 8.10438 14.936 8.06315C15.0355 8.02192 15.1234 7.96321 15.1995 7.88702C15.2757 7.81084 15.3344 7.72297 15.3757 7.62343C15.4169 7.52389 15.4375 7.42024 15.4375 7.3125C15.4375 7.20476 15.4169 7.10111 15.3757 7.00157C15.3344 6.90203 15.2757 6.81416 15.1995 6.73798C15.1234 6.66179 15.0355 6.60308 14.936 6.56185C14.8364 6.52062 14.7328 6.5 14.625 6.5L9.75 6.5C9.64226 6.5 9.53861 6.52062 9.43907 6.56185C9.33953 6.60308 9.25166 6.66179 9.17548 6.73798C9.09929 6.81416 9.04058 6.90203 8.99935 7.00157C8.95812 7.10111 8.9375 7.20476 8.9375 7.3125L8.9375 47.9375C8.9375 48.0452 8.95812 48.1489 8.99935 48.2484C9.04058 48.348 9.09929 48.4358 9.17548 48.512C9.25166 48.5882 9.33953 48.6469 9.43907 48.6881C9.53861 48.7294 9.64226 48.75 9.75 48.75L42.2501 48.75C42.3579 48.75 42.4615 48.7294 42.5611 48.6881C42.6606 48.6469 42.7485 48.5882 42.8246 48.512C42.9008 48.4358 42.9595 48.348 43.0008 48.2484C43.042 48.1489 43.0626 48.0452 43.0626 47.9375L43.0626 7.3125C43.0626 7.20476 43.042 7.10111 43.0008 7.00157C42.9595 6.90203 42.9008 6.81416 42.8246 6.73798C42.7485 6.66179 42.6606 6.60308 42.5611 6.56185C42.4615 6.52062 42.3579 6.5 42.2501 6.5ZM26.0001 3.25C25.7858 3.25 25.5765 3.33633 25.4252 3.48766C25.2672 3.64669 25.188 3.8383 25.1876 4.0625C25.1876 4.27578 25.2739 4.48602 25.4252 4.63734C25.5842 4.79538 25.7759 4.8746 26.0001 4.875C26.2133 4.875 26.4236 4.78867 26.5749 4.63734C26.7329 4.47831 26.8122 4.2867 26.8126 4.0625C26.8126 3.8482 26.7262 3.63898 26.5749 3.48766C26.4158 3.32978 26.2242 3.25056 26.0001 3.25Z" fill="rgb(192,108,94)" fill-rule="nonzero" />
		<path id="Форма 20" d="M13.238 18.9254C13.1618 19.0016 13.1031 19.0895 13.0619 19.189C13.0206 19.2885 13 19.3922 13 19.4999C13 19.6077 13.0206 19.7113 13.0619 19.8109C13.1031 19.9104 13.1618 19.9982 13.238 20.0744L15.6755 22.5119C15.8342 22.6706 16.0421 22.7499 16.2501 22.7499C16.4581 22.7499 16.666 22.6706 16.8246 22.5119L20.8871 18.4494C20.9633 18.3732 21.0221 18.2854 21.0633 18.1859C21.1045 18.0863 21.1252 17.9827 21.1252 17.8749C21.1252 17.7672 21.1045 17.6635 21.0633 17.564C21.0221 17.4645 20.9633 17.3766 20.8871 17.3004C20.8109 17.2243 20.7231 17.1656 20.6235 17.1243C20.524 17.0831 20.4204 17.0625 20.3126 17.0625C20.2049 17.0625 20.1013 17.0831 20.0017 17.1243C19.9022 17.1656 19.8143 17.2243 19.7381 17.3004L16.2501 20.7884L14.3871 18.9254C14.3109 18.8492 14.2231 18.7905 14.1235 18.7493C14.024 18.7081 13.9203 18.6874 13.8126 18.6874C13.7048 18.6874 13.6012 18.7081 13.5016 18.7493C13.4021 18.7905 13.3142 18.8492 13.238 18.9254ZM20.8871 26.2379C20.8109 26.1618 20.7231 26.1031 20.6235 26.0618C20.524 26.0206 20.4204 26 20.3126 26C20.2049 26 20.1013 26.0206 20.0017 26.0618C19.9022 26.1031 19.8143 26.1618 19.7381 26.2379L16.2501 29.7259L14.3871 27.8629C14.3109 27.7868 14.2231 27.7281 14.1235 27.6868C14.024 27.6456 13.9204 27.625 13.8126 27.625C13.7049 27.625 13.6012 27.6456 13.5017 27.6868C13.4022 27.7281 13.3143 27.7868 13.2381 27.8629C13.1619 27.9391 13.1032 28.027 13.062 28.1265C13.0207 28.226 13.0001 28.3297 13.0001 28.4374C13.0001 28.5452 13.0207 28.6488 13.062 28.7484C13.1032 28.8479 13.1619 28.9357 13.2381 29.0119L15.6756 31.4494C15.8343 31.6081 16.0422 31.6874 16.2502 31.6874C16.4582 31.6874 16.6661 31.6081 16.8247 31.4494L20.8872 27.3869C20.9634 27.3107 21.0221 27.2229 21.0633 27.1233C21.1045 27.0238 21.1251 26.9201 21.1251 26.8124C21.1251 26.7047 21.1045 26.601 21.0633 26.5015C21.022 26.402 20.9633 26.3141 20.8871 26.2379L20.8871 26.2379ZM19.738 35.1754L16.2501 38.6634L14.3871 36.8004C14.3109 36.7243 14.2231 36.6656 14.1235 36.6243C14.024 36.5831 13.9204 36.5625 13.8126 36.5625C13.7049 36.5625 13.6012 36.5831 13.5017 36.6243C13.4022 36.6656 13.3143 36.7243 13.2381 36.8004C13.1619 36.8766 13.1032 36.9645 13.062 37.064C13.0207 37.1635 13.0001 37.2672 13.0001 37.3749C13.0001 37.4827 13.0207 37.5863 13.062 37.6859C13.1032 37.7854 13.1619 37.8732 13.2381 37.9494L15.6756 40.3869C15.8343 40.5456 16.0422 40.6249 16.2502 40.6249C16.4582 40.6249 16.6661 40.5456 16.8247 40.3869L20.8872 36.3244C20.9634 36.2482 21.0222 36.1604 21.0634 36.0609C21.1046 35.9613 21.1253 35.8577 21.1253 35.7499C21.1253 35.6422 21.1046 35.5385 21.0634 35.439C21.0222 35.3395 20.9634 35.2516 20.8872 35.1754C20.811 35.0993 20.7232 35.0406 20.6236 34.9993C20.524 34.9581 20.4204 34.9375 20.3126 34.9375C20.2049 34.9375 20.1012 34.9581 20.0017 34.9993C19.9021 35.0406 19.8143 35.0993 19.738 35.1754L19.738 35.1754ZM24.3751 20.3125L38.1877 20.3125C38.2954 20.3125 38.399 20.2919 38.4986 20.2506C38.5981 20.2094 38.686 20.1507 38.7622 20.0745C38.8384 19.9983 38.8971 19.9104 38.9383 19.8109C38.9795 19.7114 39.0002 19.6077 39.0002 19.5C39.0002 19.3922 38.9795 19.2886 38.9383 19.189C38.8971 19.0895 38.8384 19.0016 38.7622 18.9255C38.686 18.8493 38.5981 18.7906 38.4986 18.7493C38.399 18.7081 38.2954 18.6875 38.1877 18.6875L24.3751 18.6875C24.2674 18.6875 24.1637 18.7081 24.0642 18.7493C23.9646 18.7906 23.8768 18.8493 23.8006 18.9255C23.7244 19.0016 23.6657 19.0895 23.6244 19.189C23.5832 19.2886 23.5626 19.3922 23.5626 19.5C23.5626 19.6077 23.5832 19.7114 23.6244 19.8109C23.6657 19.9104 23.7244 19.9983 23.8006 20.0745C23.8768 20.1507 23.9646 20.2094 24.0642 20.2506C24.1637 20.2919 24.2674 20.3125 24.3751 20.3125ZM24.3751 29.25L38.1877 29.25C38.2954 29.25 38.399 29.2294 38.4986 29.1881C38.5981 29.1469 38.686 29.0882 38.7622 29.012C38.8384 28.9358 38.8971 28.8479 38.9383 28.7484C38.9795 28.6489 39.0002 28.5452 39.0002 28.4375C39.0002 28.3297 38.9795 28.2261 38.9383 28.1265C38.8971 28.027 38.8384 27.9391 38.7622 27.863C38.686 27.7868 38.5981 27.7281 38.4986 27.6868C38.399 27.6456 38.2954 27.625 38.1877 27.625L24.3751 27.625C24.2674 27.625 24.1637 27.6456 24.0642 27.6868C23.9646 27.7281 23.8768 27.7868 23.8006 27.863C23.7244 27.9391 23.6657 28.027 23.6244 28.1265C23.5832 28.2261 23.5626 28.3297 23.5626 28.4375C23.5626 28.5452 23.5832 28.6489 23.6244 28.7484C23.6657 28.8479 23.7244 28.9358 23.8006 29.012C23.8768 29.0882 23.9646 29.1469 24.0642 29.1881C24.1637 29.2294 24.2674 29.25 24.3751 29.25ZM24.3751 38.1875L38.1877 38.1875C38.2954 38.1875 38.399 38.1669 38.4986 38.1256C38.5981 38.0844 38.686 38.0257 38.7622 37.9495C38.8384 37.8733 38.8971 37.7854 38.9383 37.6859C38.9795 37.5864 39.0002 37.4827 39.0002 37.375C39.0002 37.2672 38.9795 37.1636 38.9383 37.064C38.8971 36.9645 38.8384 36.8766 38.7622 36.8005C38.686 36.7243 38.5981 36.6656 38.4986 36.6243C38.399 36.5831 38.2954 36.5625 38.1877 36.5625L24.3751 36.5625C24.2674 36.5625 24.1637 36.5831 24.0642 36.6243C23.9646 36.6656 23.8768 36.7243 23.8006 36.8005C23.7244 36.8766 23.6657 36.9645 23.6244 37.064C23.5832 37.1636 23.5626 37.2672 23.5626 37.375C23.5626 37.4827 23.5832 37.5864 23.6244 37.6859C23.6657 37.7854 23.7244 37.8733 23.8006 37.9495C23.8768 38.0257 23.9646 38.0844 24.0642 38.1256C24.1637 38.1669 24.2674 38.1875 24.3751 38.1875Z" fill="rgb(192,108,94)" fill-rule="nonzero" />
	</g>
</svg>
