<svg viewBox="0 0 52.0002 52" xmlns="http://www.w3.org/2000/svg" xmlns:xlink="http://www.w3.org/1999/xlink" width="52.000183" height="52.000000" fill="none">
	<rect id="icon_inner" width="52.000198" height="52.000000" x="0.000000" y="0.000000" />
	<path id="Форма 9" d="M4.60657 48.6481L22.155 48.6481C22.8469 48.6481 23.4097 48.0852 23.4097 47.3934L23.4097 29.8448C23.4097 29.1531 22.8469 28.5902 22.1551 28.5902L4.60657 28.5902C3.91473 28.5902 3.35187 29.1531 3.35187 29.8449L3.35187 47.3934C3.35187 48.0852 3.91473 48.6481 4.60657 48.6481L4.60657 48.6481ZM14.97 47.0655C14.9418 47.0835 14.9148 47.1031 14.8891 47.1245L10.3135 47.1245C10.3054 47.1198 10.298 47.1144 10.2897 47.1098C10.0186 46.9597 9.80427 46.7511 9.64682 46.4842C9.48938 46.2172 9.41056 45.9287 9.41038 45.6188C9.41038 44.6797 10.1742 43.9158 11.1134 43.9158C11.5341 43.9158 11.8751 43.5748 11.8751 43.1541L11.8751 39.9723L13.3093 39.9723L13.3093 43.1541C13.3093 43.5748 13.6502 43.9158 14.071 43.9158C15.01 43.9158 15.774 44.6796 15.774 45.6188C15.774 46.2109 15.4735 46.7517 14.97 47.0655ZM4.87541 30.1136L21.8863 30.1136L21.8863 47.1245L16.9257 47.1245C17.1741 46.6534 17.2979 46.1514 17.2973 45.6188C17.2973 44.1021 16.2453 42.8264 14.8326 42.4832L14.8326 39.9227C15.1204 39.8139 15.3256 39.5366 15.3256 39.2106C15.3256 38.7898 14.9846 38.4489 14.5639 38.4489L10.6204 38.4489C10.5194 38.4489 10.4222 38.4682 10.3289 38.5068C10.2355 38.5455 10.1532 38.6005 10.0817 38.672C10.0103 38.7434 9.95528 38.8258 9.91663 38.9191C9.87798 39.0124 9.85866 39.1096 9.85867 39.2106C9.85867 39.5365 10.0637 39.8139 10.3517 39.9227L10.3517 42.4832C8.93902 42.8264 7.88694 44.1021 7.88694 45.6188C7.88735 46.1517 8.0123 46.6536 8.2618 47.1245L4.87541 47.1245L4.87541 30.1136Z" fill="rgb(192,108,94)" fill-rule="nonzero" />
	<path id="Форма 10" d="M50.7453 25.2383L43.172 25.2383L44.2329 20.9947C44.2662 20.8612 44.2763 20.726 44.2662 20.5932C44.6903 20.0142 44.9022 19.3659 44.9017 18.6482C44.9017 17.3383 44.1297 16.1745 42.9677 15.6483C42.7412 14.0499 41.3637 12.8163 39.7035 12.8163C38.0434 12.8163 36.666 14.0499 36.4393 15.6483C35.2773 16.1745 34.5053 17.3383 34.5053 18.6482C34.5055 19.3658 34.7173 20.0142 35.1408 20.5935C35.1308 20.7262 35.1408 20.8612 35.1741 20.9947L36.2351 25.2383L26.7617 25.2383L26.7617 1.2547C26.7617 0.562859 26.1989 0 25.507 0L1.2547 0C0.56286 5.57948e-08 2.54267e-07 0.562859 2.54267e-07 1.2547L2.54267e-07 25.5071C2.54267e-07 25.6821 0.0362581 25.8486 0.101156 26.0001C0.0336099 26.1574 -0.000108857 26.3217 2.54267e-07 26.493L2.54267e-07 50.7454C2.54267e-07 51.4371 0.56286 52 1.2547 52L25.5071 52C25.682 52 25.8487 51.9638 26.0001 51.8988C26.1515 51.9638 26.3181 52 26.4931 52L50.7455 52C51.4373 52 52.0002 51.4371 52.0002 50.7453L52.0002 26.493C52 25.8011 51.4371 25.2383 50.7453 25.2383L50.7453 25.2383ZM25.2383 50.4766L1.52344 50.4766L1.52344 26.7617L25.2383 26.7617L25.2383 50.4766ZM25.2383 25.2383L1.52344 25.2383L1.52344 1.52344L25.2383 1.52344L25.2383 25.2383ZM36.2211 19.4484C36.0934 19.197 36.0294 18.9303 36.029 18.6483C36.029 18.4516 36.0609 18.2603 36.1247 18.0743C36.1884 17.8883 36.2807 17.7176 36.4013 17.5623C36.522 17.407 36.6645 17.2755 36.829 17.1677C36.9935 17.0599 37.171 16.9817 37.3616 16.9331C37.5346 16.8888 37.6747 16.7953 37.7819 16.6524C37.8891 16.5096 37.9398 16.349 37.934 16.1705C37.9333 16.1495 37.932 16.1286 37.9306 16.1078L37.9302 16.1029C37.9358 15.1298 38.7291 14.3398 39.7036 14.3398C40.6781 14.3398 41.4714 15.1298 41.477 16.1029L41.4766 16.1078C41.4752 16.1286 41.474 16.1495 41.4732 16.1705C41.4675 16.349 41.5182 16.5096 41.6254 16.6524C41.7326 16.7953 41.8727 16.8888 42.0457 16.9331C42.1741 16.9659 42.2974 17.0125 42.4154 17.073C42.5333 17.1334 42.6432 17.2062 42.7448 17.2914C42.8464 17.3765 42.9374 17.4719 43.0176 17.5774C43.0978 17.683 43.1653 17.7962 43.2201 17.9169C43.2749 18.0376 43.3156 18.1629 43.3423 18.2928C43.3689 18.4227 43.3808 18.5539 43.378 18.6865C43.3751 18.819 43.3576 18.9496 43.3255 19.0783C43.2933 19.2069 43.2472 19.3303 43.1873 19.4486C43.1305 19.4405 43.0733 19.4362 43.0159 19.4358L36.3915 19.4358C36.3339 19.4358 36.2772 19.4409 36.2211 19.4484ZM42.6714 20.9591L41.6016 25.2383L37.8055 25.2383L36.7358 20.9591L42.6714 20.9591ZM50.4766 50.4766L26.7617 50.4766L26.7617 26.7617L50.4766 26.7617L50.4766 50.4766Z" fill="rgb(192,108,94)" fill-rule="nonzero" />
	<path id="Форма 11" d="M4.60657 23.4098L22.155 23.4098C22.8469 23.4098 23.4097 22.8469 23.4097 22.1551L23.4097 4.60653C23.4097 3.91479 22.8469 3.35193 22.1551 3.35193L11.8363 3.35193C11.7353 3.35192 11.6381 3.37123 11.5448 3.40988C11.4515 3.44853 11.3691 3.50357 11.2977 3.575C11.2262 3.64643 11.1712 3.72881 11.1325 3.82213C11.0939 3.91546 11.0746 4.01263 11.0746 4.11365C11.0746 4.53442 11.4155 4.87537 11.8363 4.87537L21.8863 4.87537L21.8863 21.8863L20.2549 21.8863L20.2549 19.9861C20.2549 19.2943 19.6921 18.7314 19.0002 18.7314L16.3113 18.7314L16.3113 9.1416C16.3113 8.44976 15.7485 7.8869 15.0566 7.8869L12.3381 7.8869C12.2146 7.32394 11.7127 6.90103 11.1132 6.90103L8.15577 6.90103C7.46393 6.90103 6.90107 7.46389 6.90107 8.15573L6.90107 21.8863L4.87541 21.8863L4.87541 4.87537L8.68156 4.87537C9.10234 4.87537 9.44328 4.53442 9.44328 4.11365C9.44328 3.69287 9.10234 3.35193 8.68156 3.35193L4.60657 3.35193C3.91473 3.35193 3.35187 3.91479 3.35187 4.60663L3.35187 22.1551C3.35187 22.8469 3.91473 23.4098 4.60657 23.4098L4.60657 23.4098ZM12.368 9.53597L12.368 9.41043L14.788 9.41043L14.788 18.7315L12.368 18.7315L12.368 9.53597ZM11.3821 20.2549L18.7315 20.2549L18.7315 21.8863L11.3821 21.8863L11.3821 20.2549L11.3821 20.2549ZM8.42451 8.42447L10.8445 8.42447L10.8445 18.7613C10.2816 18.8848 9.85867 19.3867 9.85867 19.9862L9.85867 21.8864L8.42451 21.8864L8.42451 8.42447ZM29.8448 48.648L40.1965 48.648C40.6173 48.648 40.9582 48.307 40.9582 47.8863C40.9582 47.4655 40.6173 47.1245 40.1965 47.1245L30.1137 47.1245L30.1137 30.1136L47.1247 30.1136L47.1247 47.1245L43.1214 47.1245C42.7006 47.1245 42.3597 47.4655 42.3597 47.8863C42.3597 48.307 42.7006 48.648 43.1214 48.648L47.3934 48.648C48.0853 48.648 48.6481 48.0851 48.6481 47.3933L48.6481 29.8448C48.6481 29.153 48.0853 28.5901 47.3934 28.5901L29.845 28.5901C29.1531 28.5901 28.5902 29.153 28.5902 29.8448L28.5902 47.3934C28.5902 48.0851 29.1531 48.648 29.8448 48.648L29.8448 48.648Z" fill="rgb(192,108,94)" fill-rule="nonzero" />
</svg>
