<svg viewBox="0 0 207 65" xmlns="http://www.w3.org/2000/svg" xmlns:xlink="http://www.w3.org/1999/xlink" width="207.000000" height="65.000000" fill="none" customFrame="#000000">
	<rect id="logo2" width="207.000000" height="65.000000" x="0.000000" y="0.000000" />
	<path id="" d="M46.1236 29.6298L37.1401 7.63086L22.9077 7.63086L39.4917 46.8281L52.48 46.8281L68.7598 8.3181L69.0503 7.63086L56.062 7.63086L46.8672 29.6328L46.4917 30.5312L46.1236 29.6298ZM56.5196 8.3181L46.4844 32.3311L36.6784 8.3181L23.9447 8.3181L39.9472 46.1409L52.0244 46.1409L68.0136 8.3181L56.5196 8.3181ZM87.9574 17.5977L106.137 17.5977L106.137 7.63086L74.2682 7.63086L74.2682 46.8281L106.862 46.8281L106.862 36.8613L87.2702 36.8613L87.2702 31.707L103.841 31.707L103.841 22.1914L87.2702 22.1914L87.2702 17.5977L87.9574 17.5977ZM103.153 22.8786L86.583 22.8786L86.583 16.9104L105.45 16.9104L105.45 8.3181L74.9555 8.3181L74.9555 46.1409L106.175 46.1409L106.175 37.5486L86.583 37.5486L86.583 31.0198L103.153 31.0198L103.153 22.8786ZM130.477 36.9707L126.895 36.9707L126.895 46.8281L113.674 46.8281L113.674 7.63086L132.555 7.63086C136.174 7.63086 139.327 8.22787 142.016 9.42188C144.705 10.6159 146.774 12.334 148.223 14.5762C149.682 16.8092 150.411 19.4206 150.411 22.4102C150.411 25.2083 149.777 27.6556 148.51 29.752C147.353 31.6586 145.728 33.2077 143.635 34.3995C143.437 34.5124 143.234 34.622 143.028 34.7285L143.417 35.3008L150.791 46.1409L151.258 46.8281L137.149 46.8281L130.477 36.9707ZM137.514 46.1409L130.842 36.2835L126.208 36.2835L126.208 46.1409L114.362 46.1409L114.362 8.3181L132.555 8.3181Q137.837 8.3181 141.737 10.05Q144.829 11.4228 146.768 13.7542Q147.241 14.3232 147.646 14.9492Q147.955 15.4217 148.217 15.9184Q149.723 18.766 149.723 22.4102Q149.723 26.2394 148.077 29.1319Q148.001 29.2652 147.922 29.3965Q147.62 29.8943 147.272 30.3581Q145.55 32.6557 142.713 34.1176L142.023 34.4732L149.96 46.1409L137.514 46.1409ZM187.263 39.9922L172.375 39.9922L169.736 46.8281L156.297 46.8281L156.597 46.1409L173.441 7.63086L186.43 7.63086L203.26 46.1409L203.56 46.8281L189.902 46.8281L187.263 39.9922ZM190.374 46.1409L187.735 39.3049L171.903 39.3049L169.265 46.1409L157.347 46.1409L173.891 8.3181L185.98 8.3181L202.51 46.1409L190.374 46.1409ZM136.921 25.4989Q137.782 24.251 137.782 22.4102Q137.781 20.5748 136.925 19.3276Q136.617 18.8786 136.197 18.5059Q134.664 17.1292 131.708 17.1292L126.208 17.1292L126.208 27.6911L131.708 27.6911Q134.664 27.6911 136.2 26.3121Q136.615 25.9431 136.921 25.4989ZM127.582 17.8164L131.708 17.8164C133.503 17.8164 134.848 18.2174 135.741 19.0195C136.643 19.8216 137.094 20.9518 137.094 22.4102C137.094 23.8685 136.643 24.9987 135.741 25.8008C134.848 26.6029 133.503 27.0039 131.708 27.0039L126.895 27.0039L126.895 17.8164L127.582 17.8164ZM175.01 31.1638L184.63 31.1638L184.268 30.2285L179.811 18.7119L175.01 31.1638ZM183.361 29.7893L183.627 30.4766L176.012 30.4766L176.277 29.7893L179.445 21.573L179.812 20.6191L180.181 21.5726L183.361 29.7893Z" fill="rgb(255,255,255)" fill-rule="evenodd" />
	<path id="" d="M106.862 36.8613L106.862 46.8281L74.2682 46.8281L74.2682 7.63086L106.137 7.63086L106.137 17.5977L87.2702 17.5977L87.2702 22.1914L103.841 22.1914L103.841 31.707L87.2702 31.707L87.2702 36.8613L106.862 36.8613Z" fill="rgb(255,255,255)" fill-rule="nonzero" />
	<path id="" d="M46.1236 29.6298L37.1401 7.63086L22.9077 7.63086L39.4917 46.8281L52.48 46.8281L68.7598 8.3181L69.0503 7.63086L56.062 7.63086L46.8672 29.6328L46.4917 30.5312L46.1236 29.6298ZM56.5196 8.3181L46.4844 32.3311L36.6784 8.3181L23.9447 8.3181L39.9472 46.1409L52.0244 46.1409L68.0136 8.3181L56.5196 8.3181ZM87.9574 17.5977L106.137 17.5977L106.137 7.63086L74.2682 7.63086L74.2682 46.8281L106.862 46.8281L106.862 36.8613L87.2702 36.8613L87.2702 31.707L103.841 31.707L103.841 22.1914L87.2702 22.1914L87.2702 17.5977L87.9574 17.5977ZM103.153 22.8786L86.583 22.8786L86.583 16.9104L105.45 16.9104L105.45 8.3181L74.9555 8.3181L74.9555 46.1409L106.175 46.1409L106.175 37.5486L86.583 37.5486L86.583 31.0198L103.153 31.0198L103.153 22.8786ZM130.477 36.9707L126.895 36.9707L126.895 46.8281L113.674 46.8281L113.674 7.63086L132.555 7.63086C136.174 7.63086 139.327 8.22787 142.016 9.42188C144.705 10.6159 146.774 12.334 148.223 14.5762C149.682 16.8092 150.411 19.4206 150.411 22.4102C150.411 25.2083 149.777 27.6556 148.51 29.752C147.353 31.6586 145.728 33.2077 143.635 34.3995C143.437 34.5124 143.234 34.622 143.028 34.7285L143.417 35.3008L150.791 46.1409L151.258 46.8281L137.149 46.8281L130.477 36.9707ZM137.514 46.1409L130.842 36.2835L126.208 36.2835L126.208 46.1409L114.362 46.1409L114.362 8.3181L132.555 8.3181Q137.837 8.3181 141.737 10.05Q144.829 11.4228 146.768 13.7542Q147.241 14.3232 147.646 14.9492Q147.955 15.4217 148.217 15.9184Q149.723 18.766 149.723 22.4102Q149.723 26.2394 148.077 29.1319Q148.001 29.2652 147.922 29.3965Q147.62 29.8943 147.272 30.3581Q145.55 32.6557 142.713 34.1176L142.023 34.4732L149.96 46.1409L137.514 46.1409ZM187.263 39.9922L172.375 39.9922L169.736 46.8281L156.297 46.8281L156.597 46.1409L173.441 7.63086L186.43 7.63086L203.26 46.1409L203.56 46.8281L189.902 46.8281L187.263 39.9922ZM190.374 46.1409L187.735 39.3049L171.903 39.3049L169.265 46.1409L157.347 46.1409L173.891 8.3181L185.98 8.3181L202.51 46.1409L190.374 46.1409ZM136.921 25.4989Q137.782 24.251 137.782 22.4102Q137.781 20.5748 136.925 19.3276Q136.617 18.8786 136.197 18.5059Q134.664 17.1292 131.708 17.1292L126.208 17.1292L126.208 27.6911L131.708 27.6911Q134.664 27.6911 136.2 26.3121Q136.615 25.9431 136.921 25.4989ZM127.582 17.8164L131.708 17.8164C133.503 17.8164 134.848 18.2174 135.741 19.0195C136.643 19.8216 137.094 20.9518 137.094 22.4102C137.094 23.8685 136.643 24.9987 135.741 25.8008C134.848 26.6029 133.503 27.0039 131.708 27.0039L126.895 27.0039L126.895 17.8164L127.582 17.8164ZM175.01 31.1638L184.63 31.1638L184.268 30.2285L179.811 18.7119L175.01 31.1638ZM183.361 29.7893L183.627 30.4766L176.012 30.4766L176.277 29.7893L179.445 21.573L179.812 20.6191L180.181 21.5726L183.361 29.7893Z" fill="rgb(255,255,255)" fill-rule="evenodd" />
	<path id="" d="M130.477 36.9707L126.895 36.9707L126.895 46.8281L113.674 46.8281L113.674 7.63086L132.555 7.63086C136.174 7.63086 139.327 8.22787 142.016 9.42188C144.705 10.6159 146.774 12.334 148.223 14.5762C149.682 16.8092 150.411 19.4206 150.411 22.4102C150.411 25.2083 149.777 27.6556 148.51 29.752C147.243 31.8392 145.416 33.498 143.028 34.7285L151.258 46.8281L137.149 46.8281L130.477 36.9707ZM137.094 22.4102C137.094 20.9518 136.643 19.8216 135.741 19.0195C134.848 18.2174 133.503 17.8164 131.708 17.8164L126.895 17.8164L126.895 27.0039L131.708 27.0039C133.503 27.0039 134.848 26.6029 135.741 25.8008C136.643 24.9987 137.094 23.8685 137.094 22.4102ZM187.263 39.9922L172.375 39.9922L169.736 46.8281L156.297 46.8281L173.441 7.63086L186.43 7.63086L203.56 46.8281L189.902 46.8281L187.263 39.9922ZM183.627 30.4766L179.812 20.6191L176.012 30.4766L183.627 30.4766Z" fill="rgb(255,255,255)" fill-rule="nonzero" />
	<path id="" d="M46.1236 29.6298L37.1401 7.63086L22.9077 7.63086L39.4917 46.8281L52.48 46.8281L68.7598 8.3181L69.0503 7.63086L56.062 7.63086L46.8672 29.6328L46.4917 30.5312L46.1236 29.6298ZM56.5196 8.3181L46.4844 32.3311L36.6784 8.3181L23.9447 8.3181L39.9472 46.1409L52.0244 46.1409L68.0136 8.3181L56.5196 8.3181ZM87.9574 17.5977L106.137 17.5977L106.137 7.63086L74.2682 7.63086L74.2682 46.8281L106.862 46.8281L106.862 36.8613L87.2702 36.8613L87.2702 31.707L103.841 31.707L103.841 22.1914L87.2702 22.1914L87.2702 17.5977L87.9574 17.5977ZM103.153 22.8786L86.583 22.8786L86.583 16.9104L105.45 16.9104L105.45 8.3181L74.9555 8.3181L74.9555 46.1409L106.175 46.1409L106.175 37.5486L86.583 37.5486L86.583 31.0198L103.153 31.0198L103.153 22.8786ZM130.477 36.9707L126.895 36.9707L126.895 46.8281L113.674 46.8281L113.674 7.63086L132.555 7.63086C136.174 7.63086 139.327 8.22787 142.016 9.42188C144.705 10.6159 146.774 12.334 148.223 14.5762C149.682 16.8092 150.411 19.4206 150.411 22.4102C150.411 25.2083 149.777 27.6556 148.51 29.752C147.353 31.6586 145.728 33.2077 143.635 34.3995C143.437 34.5124 143.234 34.622 143.028 34.7285L143.417 35.3008L150.791 46.1409L151.258 46.8281L137.149 46.8281L130.477 36.9707ZM137.514 46.1409L130.842 36.2835L126.208 36.2835L126.208 46.1409L114.362 46.1409L114.362 8.3181L132.555 8.3181Q137.837 8.3181 141.737 10.05Q144.829 11.4228 146.768 13.7542Q147.241 14.3232 147.646 14.9492Q147.955 15.4217 148.217 15.9184Q149.723 18.766 149.723 22.4102Q149.723 26.2394 148.077 29.1319Q148.001 29.2652 147.922 29.3965Q147.62 29.8943 147.272 30.3581Q145.55 32.6557 142.713 34.1176L142.023 34.4732L149.96 46.1409L137.514 46.1409ZM187.263 39.9922L172.375 39.9922L169.736 46.8281L156.297 46.8281L156.597 46.1409L173.441 7.63086L186.43 7.63086L203.26 46.1409L203.56 46.8281L189.902 46.8281L187.263 39.9922ZM190.374 46.1409L187.735 39.3049L171.903 39.3049L169.265 46.1409L157.347 46.1409L173.891 8.3181L185.98 8.3181L202.51 46.1409L190.374 46.1409ZM136.921 25.4989Q137.782 24.251 137.782 22.4102Q137.781 20.5748 136.925 19.3276Q136.617 18.8786 136.197 18.5059Q134.664 17.1292 131.708 17.1292L126.208 17.1292L126.208 27.6911L131.708 27.6911Q134.664 27.6911 136.2 26.3121Q136.615 25.9431 136.921 25.4989ZM127.582 17.8164L131.708 17.8164C133.503 17.8164 134.848 18.2174 135.741 19.0195C136.643 19.8216 137.094 20.9518 137.094 22.4102C137.094 23.8685 136.643 24.9987 135.741 25.8008C134.848 26.6029 133.503 27.0039 131.708 27.0039L126.895 27.0039L126.895 17.8164L127.582 17.8164ZM175.01 31.1638L184.63 31.1638L184.268 30.2285L179.811 18.7119L175.01 31.1638ZM183.361 29.7893L183.627 30.4766L176.012 30.4766L176.277 29.7893L179.445 21.573L179.812 20.6191L180.181 21.5726L183.361 29.7893Z" fill="rgb(255,255,255)" fill-rule="evenodd" />
	<path id="" d="M29.3319 55.2773L30.9051 55.2773C31.5692 55.2773 32.159 55.4238 32.6746 55.7168C33.1903 56.0078 33.5946 56.415 33.8875 56.9385C34.1824 57.4619 34.3299 58.0713 34.3299 58.7666C34.3299 59.4541 34.1824 60.0576 33.8875 60.5771C33.5946 61.0967 33.1903 61.502 32.6746 61.793C32.159 62.084 31.5692 62.2295 30.9051 62.2295L29.3319 62.2295C28.6658 62.2295 28.075 62.0859 27.5594 61.7988C27.0438 61.5098 26.6385 61.1064 26.3436 60.5889C26.0506 60.0693 25.9041 59.4648 25.9041 58.7754C25.9041 58.0801 26.0516 57.4707 26.3465 56.9473C26.6414 56.4219 27.0467 56.0127 27.5623 55.7197C28.0779 55.4248 28.6678 55.2773 29.3319 55.2773ZM29.3319 56.417C28.8768 56.417 28.4881 56.5117 28.1658 56.7012C27.8455 56.8887 27.6004 57.1582 27.4305 57.5098C27.2625 57.8613 27.1785 58.2832 27.1785 58.7754C27.1785 59.2559 27.2635 59.6689 27.4334 60.0146C27.6053 60.3604 27.8514 60.626 28.1717 60.8115C28.494 60.9971 28.8807 61.0898 29.3319 61.0898L30.908 61.0898C31.3612 61.0898 31.7469 60.9971 32.0653 60.8115C32.3856 60.624 32.6297 60.3564 32.7977 60.0088C32.9676 59.6611 33.0526 59.2471 33.0526 58.7666C33.0526 58.2783 32.9676 57.8594 32.7977 57.5098C32.6297 57.1582 32.3856 56.8887 32.0653 56.7012C31.7469 56.5117 31.3612 56.417 30.908 56.417L29.3319 56.417ZM30.7674 54.1201L30.7674 63.3574L29.4783 63.3574L29.4783 54.1201L30.7674 54.1201ZM41.2731 63L39.8727 63L43.0133 54.2725L44.5338 54.2725L47.6745 63L46.277 63L43.8073 55.8574L43.7399 55.8574L41.2731 63ZM41.5045 59.584L46.0368 59.584L46.0368 60.6885L41.5045 60.6885L41.5045 59.584ZM53.931 63L53.931 54.2725L59.3715 54.2725L59.3715 55.4033L55.2494 55.4033L55.2494 57.791L57.2006 57.791C57.847 57.791 58.3968 57.8965 58.85 58.1074C59.305 58.3184 59.6517 58.6162 59.89 59.001C60.1302 59.3838 60.2504 59.835 60.2504 60.3545C60.2504 60.874 60.1302 61.333 59.89 61.7314C59.6517 62.1279 59.305 62.4385 58.85 62.6631C58.3968 62.8877 57.847 63 57.2006 63L53.931 63ZM55.2494 61.8926L57.2006 61.8926C57.5756 61.8926 57.8929 61.8193 58.1527 61.6729C58.4144 61.5244 58.6127 61.332 58.7474 61.0957C58.8822 60.8594 58.9496 60.6064 58.9496 60.3369C58.9496 59.9443 58.7982 59.6074 58.4955 59.3262C58.1947 59.043 57.7631 58.9014 57.2006 58.9014L55.2494 58.9014L55.2494 61.8926ZM66.8103 63L66.8103 54.2725L69.9216 54.2725C70.5993 54.2725 71.1609 54.3965 71.6062 54.6445C72.0535 54.8926 72.3874 55.2305 72.6081 55.6582C72.8308 56.084 72.9421 56.5645 72.9421 57.0996C72.9421 57.6348 72.8308 58.1162 72.6081 58.5439C72.3874 58.9717 72.0525 59.3105 71.6033 59.5605C71.156 59.8086 70.5945 59.9326 69.9187 59.9326L67.7771 59.9326L67.7771 58.8135L69.7956 58.8135C70.2273 58.8135 70.5759 58.7393 70.8415 58.5908C71.1091 58.4404 71.3054 58.2363 71.4304 57.9785C71.5554 57.7207 71.6179 57.4277 71.6179 57.0996C71.6179 56.7695 71.5554 56.4766 71.4304 56.2207C71.3054 55.9648 71.1081 55.7646 70.8386 55.6201C70.571 55.4736 70.2195 55.4004 69.7839 55.4004L68.1286 55.4004L68.1286 63L66.8103 63ZM79.4807 54.2725L80.7874 54.2725L80.7874 60.6826L80.8694 60.6826L85.3079 54.2725L86.5266 54.2725L86.5266 63L85.2083 63L85.2083 56.6016L85.1292 56.6016L80.6936 63L79.4807 63L79.4807 54.2725ZM98.6221 63L95.6865 59.0889L94.7607 59.0889L94.7607 63L93.4424 63L93.4424 54.2725L94.7607 54.2725L94.7607 57.958L95.1914 57.958L98.4873 54.2725L100.093 54.2725L96.6065 58.1807L100.228 63L98.6221 63ZM107.186 63L105.786 63L108.927 54.2725L110.447 54.2725L113.588 63L112.19 63L109.721 55.8574L109.653 55.8574L107.186 63ZM107.418 59.584L111.95 59.584L111.95 60.6885L107.418 60.6885L107.418 59.584ZM128.023 54.2725L129.623 54.2725L132.4 61.0576L132.503 61.0576L135.28 54.2725L136.88 54.2725L136.88 63L135.626 63L135.626 56.6865L135.544 56.6865L132.975 62.9854L131.932 62.9854L129.359 56.6807L129.277 56.6807L129.277 63L128.023 63L128.023 54.2725ZM143.796 63L143.796 54.2725L149.269 54.2725L149.269 55.4033L145.114 55.4033L145.114 58.0635L148.985 58.0635L148.985 59.1943L145.114 59.1943L145.114 61.8691L149.319 61.8691L149.319 63L143.796 63ZM156.032 63L156.032 54.2725L161.472 54.2725L161.472 55.4033L157.35 55.4033L157.35 57.791L159.301 57.791C159.948 57.791 160.498 57.8965 160.951 58.1074C161.406 58.3184 161.753 58.6162 161.991 59.001C162.231 59.3838 162.351 59.835 162.351 60.3545C162.351 60.874 162.231 61.333 161.991 61.7314C161.753 62.1279 161.406 62.4385 160.951 62.6631C160.498 62.8877 159.948 63 159.301 63L156.032 63ZM157.35 61.8926L159.301 61.8926C159.676 61.8926 159.994 61.8193 160.254 61.6729C160.515 61.5244 160.714 61.332 160.848 61.0957C160.983 60.8594 161.05 60.6064 161.05 60.3369C161.05 59.9443 160.899 59.6074 160.596 59.3262C160.296 59.043 159.864 58.9014 159.301 58.9014L157.35 58.9014L157.35 61.8926ZM168.911 63L168.911 54.2725L174.384 54.2725L174.384 55.4033L170.229 55.4033L170.229 58.0635L174.1 58.0635L174.1 59.1943L170.229 59.1943L170.229 61.8691L174.434 61.8691L174.434 63L168.911 63ZM180.488 63L180.488 61.8574L180.743 61.8516C181.09 61.8418 181.364 61.7236 181.563 61.4971C181.764 61.2686 181.911 60.9014 182.002 60.3955C182.094 59.8896 182.156 59.2158 182.187 58.374L182.336 54.2725L187.856 54.2725L187.856 63L186.555 63L186.555 55.3916L183.579 55.3916L183.441 58.7227C183.404 59.6562 183.309 60.4404 183.157 61.0752C183.006 61.71 182.751 62.1895 182.392 62.5137C182.035 62.8379 181.525 63 180.863 63L180.488 63ZM194.772 54.2725L196.079 54.2725L196.079 60.6826L196.161 60.6826L200.599 54.2725L201.818 54.2725L201.818 63L200.499 63L200.499 56.6016L200.42 56.6016L195.985 63L194.772 63L194.772 54.2725Z" fill="rgb(255,255,255)" fill-rule="nonzero" />
	<path id="" d="M65.5833 7.63086L49.0129 46.8281L36.0247 46.8281L19.4407 7.63086L33.6731 7.63086L43.0247 30.5312L52.595 7.63086L65.5833 7.63086Z" fill="rgb(255,255,255)" fill-rule="nonzero" />
	<path id="" d="M103.395 36.8613L103.395 46.8281L70.8012 46.8281L70.8012 7.63086L102.67 7.63086L102.67 17.5977L83.8032 17.5977L83.8032 22.1914L100.373 22.1914L100.373 31.707L83.8032 31.707L83.8032 36.8613L103.395 36.8613Z" fill="rgb(255,255,255)" fill-rule="nonzero" />
	<path id="" d="M103.395 36.8613L103.395 46.8281L70.8012 46.8281L70.8012 7.63086L102.67 7.63086L102.67 17.5977L83.8032 17.5977L83.8032 22.1914L100.373 22.1914L100.373 31.707L83.8032 31.707L83.8032 36.8613L103.395 36.8613Z" fill="rgb(255,255,255)" fill-rule="nonzero" />
	<path id="" d="M127.01 36.9707L123.428 36.9707L123.428 46.8281L110.207 46.8281L110.207 7.63086L129.088 7.63086C132.707 7.63086 135.86 8.22787 138.549 9.42188C141.238 10.6159 143.307 12.334 144.756 14.5762C146.214 16.8092 146.944 19.4206 146.944 22.4102C146.944 25.2083 146.31 27.6556 145.043 29.752C143.776 31.8392 141.949 33.498 139.561 34.7285L147.791 46.8281L133.682 46.8281L127.01 36.9707ZM133.627 22.4102C133.627 20.9518 133.176 19.8216 132.274 19.0195C131.38 18.2174 130.036 17.8164 128.241 17.8164L123.428 17.8164L123.428 27.0039L128.241 27.0039C130.036 27.0039 131.38 26.6029 132.274 25.8008C133.176 24.9987 133.627 23.8685 133.627 22.4102ZM183.796 39.9922L168.908 39.9922L166.269 46.8281L152.83 46.8281L169.974 7.63086L182.962 7.63086L200.093 46.8281L186.435 46.8281L183.796 39.9922ZM180.16 30.4766L176.345 20.6191L172.544 30.4766L180.16 30.4766Z" fill="rgb(255,255,255)" fill-rule="nonzero" />
	<path id="" d="M127.01 36.9707L123.428 36.9707L123.428 46.8281L110.207 46.8281L110.207 7.63086L129.088 7.63086C132.707 7.63086 135.86 8.22787 138.549 9.42188C141.238 10.6159 143.307 12.334 144.756 14.5762C146.214 16.8092 146.944 19.4206 146.944 22.4102C146.944 25.2083 146.31 27.6556 145.043 29.752C143.776 31.8392 141.949 33.498 139.561 34.7285L147.791 46.8281L133.682 46.8281L127.01 36.9707ZM133.627 22.4102C133.627 20.9518 133.176 19.8216 132.274 19.0195C131.38 18.2174 130.036 17.8164 128.241 17.8164L123.428 17.8164L123.428 27.0039L128.241 27.0039C130.036 27.0039 131.38 26.6029 132.274 25.8008C133.176 24.9987 133.627 23.8685 133.627 22.4102ZM183.796 39.9922L168.908 39.9922L166.269 46.8281L152.83 46.8281L169.974 7.63086L182.962 7.63086L200.093 46.8281L186.435 46.8281L183.796 39.9922ZM180.16 30.4766L176.345 20.6191L172.544 30.4766L180.16 30.4766Z" fill="rgb(255,255,255)" fill-rule="nonzero" />
</svg>
