<svg viewBox="0 0 64 64" xmlns="http://www.w3.org/2000/svg" xmlns:xlink="http://www.w3.org/1999/xlink" width="64.000000" height="64.000000" fill="none">
	<defs>
		<linearGradient id="paint_linear_0" x1="32" x2="32" y1="0" y2="63.5000153" gradientUnits="userSpaceOnUse">
			<stop stop-color="rgb(42,171,238)" offset="0" stop-opacity="1" />
			<stop stop-color="rgb(34,158,217)" offset="1" stop-opacity="1" />
		</linearGradient>
	</defs>
	<rect id="telegram_icon" width="64.000000" height="64.000015" x="0.000000" y="0.000000" />
	<g id="Сочетание 3">
		<g id="Сочетание 4">
			<ellipse id="Эллипс 1" rx="32.000000" ry="32.000008" cx="32" cy="32.0000076" fill="url(#paint_linear_0)" />
			<path id="Форма 5" d="M14.485 31.6624C23.8136 27.598 30.0342 24.9185 33.1466 23.624C42.0334 19.9278 43.88 19.2856 45.0835 19.2644C45.3482 19.2598 45.9401 19.3254 46.3235 19.6365C46.8922 20.098 46.8955 21.0998 46.8324 21.7628C46.3507 26.8228 44.267 39.1019 43.2069 44.7691C42.7583 47.1671 41.875 47.9713 41.02 48.0499C39.1618 48.2209 37.7506 46.8218 35.9507 45.642C33.1344 43.7958 31.5432 42.6465 28.8094 40.845C25.65 38.763 27.6981 37.6188 29.4986 35.7486C29.9699 35.2593 38.1575 27.8119 38.316 27.1363C38.3359 27.0518 38.3542 26.7368 38.1671 26.5705C37.98 26.4043 37.7039 26.461 37.5046 26.5063C37.2221 26.5704 32.7229 29.5443 24.0069 35.4278C22.7297 36.3048 21.573 36.732 20.5366 36.7096C19.394 36.685 17.1963 36.0636 15.5624 35.5325C13.5584 34.8811 11.9656 34.5366 12.1044 33.4304C12.1766 32.854 12.9701 32.2648 14.485 31.6624L14.485 31.6624Z" fill="rgb(255,255,255)" fill-rule="evenodd" />
		</g>
	</g>
</svg>
