<svg viewBox="0 0 58.6968 42" xmlns="http://www.w3.org/2000/svg" xmlns:xlink="http://www.w3.org/1999/xlink" width="58.696815" height="42.000000" fill="none" customFrame="#000000">
	<rect id="фрейм 58" width="58.696815" height="42.000000" x="0.000000" y="0.000000" />
	<path id="Форма 5" d="M3.48403 18.0807C17.0883 12.1535 26.16 8.24593 30.6989 6.35811C43.6587 0.967746 46.3517 0.0313147 48.1068 0.000325441C48.4929 -0.00641982 49.3561 0.089285 49.9152 0.543009C50.7446 1.21603 50.7493 2.67691 50.6573 3.64379C49.9549 11.023 46.9161 28.93 45.3701 37.1948C44.7159 40.6918 43.4278 41.8645 42.1809 41.9792C39.471 42.2286 37.4131 40.1882 34.7883 38.4677C30.681 35.7753 28.3606 34.0993 24.3737 31.4721C19.7663 28.4358 22.7532 26.7671 25.3789 24.0399C26.0661 23.3262 38.0064 12.4654 38.2376 11.4801C38.2666 11.3569 38.2934 10.8975 38.0205 10.6551C37.7476 10.4126 37.3449 10.4954 37.0543 10.5614C36.6423 10.6549 30.0809 14.9918 17.3701 23.5719C15.5076 24.8509 13.8207 25.4739 12.3093 25.4413C10.643 25.4054 7.43794 24.4992 5.05521 23.7247C2.13271 22.7748 -0.190055 22.2724 0.0122889 20.6591C0.117654 19.8185 1.27484 18.9592 3.48403 18.0807L3.48403 18.0807Z" fill="rgb(255,255,255)" fill-rule="evenodd" />
</svg>
