<svg viewBox="0 0 42.0185 23.9709" xmlns="http://www.w3.org/2000/svg" xmlns:xlink="http://www.w3.org/1999/xlink" width="42.018524" height="23.970947" fill="none" customFrame="#000000">
	<path id="Форма 6" d="M20.558 23.8708L23.0696 23.8708C23.0696 23.8708 23.8283 23.7875 24.2156 23.37C24.5722 22.9866 24.5607 22.2667 24.5607 22.2667C24.5607 22.2667 24.5117 18.8966 26.0758 18.4004C27.6177 17.9115 29.5976 21.6575 31.6963 23.0979C33.2832 24.188 34.4891 23.9489 34.4891 23.9489L40.1004 23.8708C40.1004 23.8708 43.0359 23.69 41.644 21.382C41.5299 21.1932 40.8334 19.6747 37.4719 16.5545C33.9535 13.2887 34.4246 13.817 38.6629 8.16798C41.2441 4.72772 42.276 2.62739 41.9537 1.72782C41.6463 0.871037 39.7479 1.0975 39.7479 1.0975L33.4298 1.13686C33.4298 1.13686 32.9615 1.07297 32.6141 1.28061C32.2747 1.48425 32.0562 1.95885 32.0562 1.95885C32.0562 1.95885 31.0562 4.62105 29.7226 6.88508C26.9092 11.6624 25.7843 11.9146 25.3245 11.6179C24.255 10.9266 24.522 8.84052 24.522 7.35854C24.522 2.72893 25.2242 0.798591 23.1546 0.298894C22.4678 0.132899 21.9624 0.0233752 20.2061 0.00569289C17.9517 -0.017695 16.0436 0.0125387 14.9633 0.541897C14.2445 0.893853 13.6901 1.67819 14.0277 1.72326C14.4453 1.77916 15.3911 1.97824 15.8925 2.66105C16.5399 3.54179 16.5171 5.52004 16.5171 5.52004C16.5171 5.52004 16.889 10.9699 15.6483 11.647C14.7967 12.1114 13.6284 11.1633 11.1203 6.82918C9.83509 4.60907 8.86478 2.15508 8.86478 2.15508C8.86478 2.15508 8.67768 1.69645 8.34398 1.45116C7.93898 1.15397 7.37311 1.05928 7.37311 1.05928L1.36933 1.09864C1.36933 1.09864 0.468051 1.12374 0.137201 1.51562C-0.157141 1.86415 0.113813 2.58518 0.113813 2.58518C0.113813 2.58518 4.81416 13.5819 10.1363 19.1237C15.0163 24.2045 20.558 23.8708 20.558 23.8708Z" fill="rgb(255,255,255)" fill-rule="evenodd" />
</svg>
