<svg viewBox="0 0 64 64" xmlns="http://www.w3.org/2000/svg" xmlns:xlink="http://www.w3.org/1999/xlink" width="64.000000" height="64.000000" fill="none">
	<rect id="vk_icon" width="64.000000" height="64.000000" x="0.000000" y="0.000000" />
	<g id="Сочетание 5">
		<circle id="Эллипс 2" cx="32" cy="32" r="32" fill="rgb(77,118,161)" />
		<path id="Форма 6" d="M30.7913 46.0351L33.3029 46.0351C33.3029 46.0351 34.0616 45.9518 34.4489 45.5343C34.8054 45.1509 34.794 44.431 34.794 44.431C34.794 44.431 34.7449 41.0609 36.3091 40.5647C37.8509 40.0758 39.8309 43.8218 41.9295 45.2622C43.5164 46.3523 44.7223 46.1132 44.7223 46.1132L50.3337 46.0351C50.3337 46.0351 53.2691 45.8543 51.8772 43.5463C51.7632 43.3575 51.0667 41.839 47.7051 38.7188C44.1867 35.453 44.6579 35.9813 48.8962 30.3323C51.4774 26.892 52.5093 24.7917 52.187 23.8921C51.8795 23.0353 49.9811 23.2618 49.9811 23.2618L43.663 23.3012C43.663 23.3012 43.1947 23.2373 42.8473 23.4449C42.5079 23.6486 42.2894 24.1232 42.2894 24.1232C42.2894 24.1232 41.2895 26.7854 39.9558 29.0494C37.1424 33.8267 36.0176 34.0789 35.5578 33.7822C34.4882 33.0909 34.7552 31.0048 34.7552 29.5228C34.7552 24.8932 35.4574 22.9629 33.3879 22.4632C32.7011 22.2972 32.1957 22.1877 30.4393 22.17C28.185 22.1466 26.2769 22.1768 25.1965 22.7062C24.4778 23.0582 23.9233 23.8425 24.261 23.8876C24.6785 23.9435 25.6243 24.1425 26.1257 24.8254C26.7732 25.7061 26.7504 27.6844 26.7504 27.6844C26.7504 27.6844 27.1223 33.1342 25.8816 33.8113C25.0299 34.2757 23.8617 33.3276 21.3535 28.9935C20.0683 26.7734 19.098 24.3194 19.098 24.3194C19.098 24.3194 18.9109 23.8608 18.5772 23.6155C18.1722 23.3183 17.6064 23.2236 17.6064 23.2236L11.6026 23.2629C11.6026 23.2629 10.7013 23.288 10.3704 23.6799C10.0761 24.0285 10.3471 24.7495 10.3471 24.7495C10.3471 24.7495 15.0474 35.7462 20.3695 41.288C25.2496 46.3688 30.7913 46.0351 30.7913 46.0351Z" fill="rgb(255,255,255)" fill-rule="evenodd" />
	</g>
</svg>
