<svg viewBox="0 0 64 64" xmlns="http://www.w3.org/2000/svg" xmlns:xlink="http://www.w3.org/1999/xlink" width="64.000000" height="64.000000" fill="none">
	<rect id="whatsapp_icon" width="64.000000" height="64.000000" x="0.000000" y="0.000000" />
	<g id="Сочетание 2">
		<path id="Форма 3" d="M32 64C14.3296 64 0 49.6704 0 32C0 14.3296 14.3296 0 32 0C49.6704 0 64 14.3296 64 32C64 49.6704 49.6704 64 32 64Z" fill="rgb(37,211,102)" fill-rule="nonzero" />
		<path id="Форма 4" d="M46.9696 17.1008C43.0016 13.1264 37.7152 10.9376 32.0896 10.9312C20.4992 10.9312 11.0592 20.3648 11.0592 31.9616C11.0592 35.6672 12.0256 39.2896 13.8688 42.4768L10.8864 53.3759L22.0352 50.4512C25.1072 52.1279 28.5632 53.0112 32.0832 53.0112L32.0896 53.0112C43.68 53.0112 53.1136 43.5776 53.12 31.9808C53.1264 26.3615 50.944 21.0752 46.9696 17.1007L46.9696 17.1008ZM32.096 49.4592L32.0896 49.4592C28.9536 49.4592 25.8752 48.6143 23.1936 47.0208L22.5536 46.6432L15.936 48.3776L17.7024 41.9264L17.2864 41.2672C15.5392 38.4832 14.6112 35.2704 14.6112 31.9616C14.6176 22.3232 22.4576 14.4832 32.1024 14.4832C36.7744 14.4832 41.1584 16.3072 44.4608 19.6096C47.7632 22.912 49.5808 27.3088 49.5744 31.9744C49.5744 41.6192 41.728 49.4592 32.096 49.4592L32.096 49.4592ZM41.6832 36.3647C41.1584 36.1024 38.5728 34.8288 38.0928 34.6559C37.6128 34.4831 37.2608 34.3935 36.9088 34.9183C36.5568 35.4431 35.552 36.6271 35.2448 36.9791C34.9376 37.3311 34.6304 37.3759 34.1056 37.1135C33.5808 36.8511 31.8848 36.2943 29.8816 34.5023C28.32 33.1071 27.264 31.3855 26.9568 30.8607C26.6496 30.3359 26.9248 30.0479 27.1872 29.7855C27.424 29.5487 27.712 29.1711 27.9744 28.8639C28.2368 28.5567 28.3264 28.3391 28.4992 27.9871C28.672 27.6351 28.5888 27.3279 28.4544 27.0655C28.32 26.8031 27.2704 24.2175 26.8352 23.1615C26.4064 22.1375 25.9776 22.2783 25.6512 22.2591C25.344 22.2463 24.992 22.2399 24.6464 22.2399C24.2944 22.2399 23.7248 22.3743 23.2448 22.8991C22.7648 23.4239 21.408 24.6975 21.408 27.2831C21.408 29.8687 23.2896 32.3711 23.552 32.7167C23.8144 33.0687 27.2576 38.3743 32.5312 40.6527C33.7856 41.1968 34.7648 41.5168 35.5264 41.7599C36.7872 42.1631 37.9328 42.1056 38.8352 41.9711C39.8464 41.8175 41.9456 40.6975 42.3808 39.4751C42.816 38.2463 42.816 37.1967 42.688 36.9791C42.56 36.7615 42.208 36.6335 41.6832 36.3647Z" fill="rgb(255,255,255)" fill-rule="evenodd" />
	</g>
</svg>
