<svg viewBox="0 0 42.2336 42.4448" xmlns="http://www.w3.org/2000/svg" xmlns:xlink="http://www.w3.org/1999/xlink" width="42.233620" height="42.444824" fill="none" customFrame="#000000">
	<path id="Форма 4" d="M36.0832 6.1696C32.1152 2.1952 26.8288 0.00639941 21.2032 0C9.61281 0 0.172814 9.4336 0.172814 21.0304C0.172814 24.736 1.13921 28.3584 2.98241 31.5456L1.33514e-05 42.4448L11.1488 39.52C14.2208 41.1968 17.6768 42.08 21.1968 42.08L21.2032 42.08C32.7936 42.08 42.2272 32.6464 42.2336 21.0496C42.24 15.4304 40.0576 10.144 36.0832 6.1696L36.0832 6.1696ZM21.2096 38.528L21.2032 38.528C18.0672 38.528 14.9888 37.6832 12.3072 36.0896L11.6672 35.712L5.04961 37.4464L6.81601 30.9952L6.40001 30.336C4.65281 27.552 3.72481 24.3392 3.72481 21.0304C3.73121 11.392 11.5712 3.552 21.216 3.552C25.888 3.552 30.272 5.376 33.5744 8.6784C36.8768 11.9808 38.6944 16.3776 38.688 21.0432C38.688 30.688 30.8416 38.528 21.2096 38.528L21.2096 38.528ZM30.7968 25.4336C30.272 25.1712 27.6864 23.8976 27.2064 23.7248C26.7264 23.552 26.3744 23.4624 26.0224 23.9872C25.6704 24.512 24.6656 25.696 24.3584 26.048C24.0512 26.4 23.744 26.4448 23.2192 26.1824C22.6944 25.92 20.9984 25.3632 18.9952 23.5712C17.4336 22.176 16.3776 20.4544 16.0704 19.9296C15.7632 19.4048 16.0384 19.1168 16.3008 18.8544C16.5376 18.6176 16.8256 18.24 17.088 17.9328C17.3504 17.6256 17.44 17.408 17.6128 17.056C17.7856 16.704 17.7024 16.3968 17.568 16.1344C17.4336 15.872 16.384 13.2864 15.9488 12.2304C15.52 11.2064 15.0912 11.3472 14.7648 11.328C14.4576 11.3152 14.1056 11.3088 13.76 11.3088C13.408 11.3088 12.8384 11.4432 12.3584 11.968C11.8784 12.4928 10.5216 13.7664 10.5216 16.352C10.5216 18.9376 12.4032 21.44 12.6656 21.7856C12.928 22.1376 16.3712 27.4432 21.6448 29.7216C22.8992 30.2656 23.8784 30.5856 24.64 30.8288C25.9008 31.232 27.0464 31.1744 27.9488 31.04C28.96 30.8864 31.0592 29.7664 31.4944 28.544C31.9296 27.3152 31.9296 26.2656 31.8016 26.048C31.6736 25.8304 31.3216 25.7024 30.7968 25.4336Z" fill="rgb(255,255,255)" fill-rule="evenodd" />
</svg>
